<svg width="24" height="24" viewBox="0 0 24 24" fill="none" xmlns="http://www.w3.org/2000/svg">
<path d="M12.2659 2.22705C10.2881 2.22689 8.35462 2.81325 6.71002 3.91197C5.06542 5.01068 3.78357 6.57242 3.02658 8.39966C2.26958 10.2269 2.07143 12.2376 2.45719 14.1775C2.84295 16.1173 3.7953 17.8992 5.19379 19.2978C6.59228 20.6964 8.37411 21.6489 10.3139 22.0348C12.2538 22.4208 14.2645 22.2228 16.0918 21.4659C17.9191 20.7091 19.4809 19.4273 20.5798 17.7828C21.6786 16.1383 22.2651 14.2049 22.2651 12.227C22.2653 10.9138 22.0069 9.61345 21.5044 8.40015C21.002 7.18685 20.2655 6.08441 19.337 5.1558C18.4084 4.22718 17.306 3.49058 16.0928 2.98806C14.8795 2.48554 13.5791 2.22695 12.2659 2.22705ZM18.0705 13.3557C18.0701 13.4839 18.019 13.6067 17.9284 13.6973C17.8378 13.7879 17.715 13.839 17.5868 13.8394H13.8783V17.5527C13.8779 17.6809 13.8268 17.8037 13.7362 17.8943C13.6456 17.9849 13.5228 18.036 13.3946 18.0364H11.1365C11.0083 18.036 10.8855 17.9849 10.7949 17.8943C10.7043 17.8037 10.6532 17.6809 10.6528 17.5527V13.8394H6.94346C6.8153 13.839 6.69251 13.7879 6.60189 13.6973C6.51126 13.6067 6.46017 13.4839 6.45974 13.3557V11.0976C6.46017 10.9694 6.51126 10.8466 6.60189 10.756C6.69251 10.6654 6.8153 10.6143 6.94346 10.6139H10.6528V6.90457C10.6532 6.77641 10.7043 6.65362 10.7949 6.563C10.8855 6.47237 11.0083 6.42128 11.1365 6.42086H13.3946C13.5228 6.42128 13.6456 6.47237 13.7362 6.563C13.8268 6.65362 13.8779 6.77641 13.8783 6.90457V10.6139H17.5916C17.7198 10.6143 17.8426 10.6654 17.9332 10.756C18.0238 10.8466 18.0749 10.9694 18.0753 11.0976L18.0705 13.3557Z" fill="#38857B"/>
</svg>
