<svg width="32" height="32" viewBox="0 0 32 32" fill="none" xmlns="http://www.w3.org/2000/svg">
<path d="M27 16.324C28.0927 15.4596 28.9406 14.3248 29.46 13.032C29.816 14.072 30 15.236 30 16.536C30 19.64 28.904 21.816 27.78 23.216C27.2654 23.8598 26.6668 24.4316 26 24.916V27C26 27.7957 25.6839 28.5587 25.1213 29.1213C24.5587 29.684 23.7956 30 23 30H22C21.4696 30 20.9609 29.7893 20.5858 29.4142C20.2107 29.0392 20 28.5305 20 28H16C16 28.5305 15.7893 29.0392 15.4142 29.4142C15.0391 29.7893 14.5304 30 14 30H13C12.2044 30 11.4413 29.684 10.8787 29.1213C10.3161 28.5587 10 27.7957 10 27V26.574C8.72303 26.1664 7.56346 25.4562 6.62 24.504C5.438 23.302 4.774 21.8 4.44 20.858C4.40107 20.7283 4.33206 20.6096 4.23856 20.5116C4.14507 20.4136 4.02975 20.339 3.902 20.294C3.3549 20.1392 2.87322 19.8101 2.52999 19.3568C2.18675 18.9035 2.00069 18.3506 2 17.782V16.194C2 15.042 2.764 14.03 3.87 13.714C4.078 13.654 4.302 13.452 4.412 13.118C4.682 12.304 5.2 11.1 6.152 10.136C6.97104 9.316 7.90806 8.62301 8.932 8.08002V4.32603C8.93318 4.02205 9.02547 3.7254 9.19695 3.47441C9.36844 3.22342 9.61124 3.02962 9.894 2.91802C10.169 2.80382 10.4712 2.77138 10.7642 2.82459C11.0572 2.87781 11.3287 3.01441 11.546 3.21802C12.052 3.69602 12.716 4.26602 13.426 4.73202C14.156 5.21002 14.84 5.51202 15.398 5.56802H15.408C14.3372 7.15627 13.8704 9.07539 14.092 10.978C14.334 13.036 15.926 14.272 17.262 14.826L22.042 16.804C23.376 17.358 25.376 17.608 27.002 16.324H27ZM9.5 15C9.89782 15 10.2794 14.842 10.5607 14.5607C10.842 14.2794 11 13.8978 11 13.5C11 13.1022 10.842 12.7207 10.5607 12.4394C10.2794 12.1581 9.89782 12 9.5 12C9.10218 12 8.72064 12.1581 8.43934 12.4394C8.15804 12.7207 8 13.1022 8 13.5C8 13.8978 8.15804 14.2794 8.43934 14.5607C8.72064 14.842 9.10218 15 9.5 15ZM16.46 7.84002C16.799 6.98418 17.3305 6.21781 18.0131 5.60026C18.6958 4.9827 19.5114 4.5305 20.3969 4.27867C21.2823 4.02684 22.2138 3.98213 23.1193 4.14799C24.0248 4.31385 24.88 4.68584 25.6187 5.23517C26.3574 5.7845 26.9597 6.49644 27.3792 7.31588C27.7987 8.13532 28.0239 9.04029 28.0376 9.96074C28.0513 10.8812 27.8529 11.7925 27.458 12.624C27.063 13.4555 26.4821 14.185 25.76 14.756C24.928 15.412 23.786 15.362 22.806 14.956L18.026 12.976C17.046 12.572 16.202 11.798 16.078 10.746C16.0188 10.2366 16.0255 9.72171 16.098 9.21402L16.46 7.84002ZM16.46 7.84002L16.188 8.71602C16.2563 8.41754 16.3472 8.12469 16.46 7.84002Z" fill="#1C5C5F"/>
</svg>
