<svg width="32" height="20" viewBox="0 0 32 20" fill="none" xmlns="http://www.w3.org/2000/svg">
<path d="M29.1384 0H2.53796C2.4455 0 2.35303 0 2.26253 0C2.0608 0.00250873 1.85956 0.0198455 1.6605 0.0518632C1.46078 0.0863216 1.26747 0.149773 1.087 0.240108C0.724806 0.420179 0.430362 0.707656 0.245927 1.06128C0.154734 1.23735 0.0910708 1.42576 0.057055 1.62025C0.0227925 1.8148 0.00371927 2.01161 0 2.20899C0 2.29927 0 2.38859 0 2.47887C0 2.58548 0 2.69209 0 2.79965V17.2061C0 17.3127 0 17.4193 0 17.5269C0 17.6172 0 17.7065 0 17.7968C0.00251047 17.9934 0.020268 18.1896 0.0531202 18.3836C0.0871215 18.5781 0.150786 18.7665 0.241992 18.9426C0.426372 19.2962 0.720831 19.5837 1.08306 19.7637C1.2634 19.8528 1.45638 19.9149 1.65558 19.9481C1.85465 19.98 2.05589 19.9974 2.25761 20H2.53403H29.467H29.7434C29.9451 19.9973 30.1463 19.98 30.3454 19.9481C30.5443 19.9148 30.7369 19.8527 30.9169 19.7637C31.2792 19.5837 31.5736 19.2962 31.758 18.9426C31.8494 18.7666 31.9131 18.5781 31.9469 18.3836C31.9797 18.1896 31.9975 17.9934 32 17.7968C32 17.7071 32 17.6172 32 17.5269C32 17.4203 32 17.3137 32 17.2061V2.79965C32 2.69305 32 2.58548 32 2.47887C32 2.38923 32 2.29927 32 2.20899C31.9975 2.01203 31.9798 1.81554 31.9469 1.62121C31.9131 1.42667 31.8494 1.23823 31.758 1.06224C31.5738 0.70822 31.2793 0.420375 30.9169 0.240108C30.7368 0.15131 30.5442 0.0891618 30.3454 0.055705C30.1464 0.0224537 29.9452 0.00383303 29.7434 0C29.6509 0 29.5584 0 29.467 0H29.1384Z" fill="#25384D"/>
<path d="M29.1383 0.666504H29.4619C29.5495 0.666504 29.637 0.666504 29.7256 0.666504C29.893 0.668292 30.06 0.682095 30.2253 0.707802C30.3587 0.729434 30.488 0.770553 30.6089 0.829777C30.8425 0.946079 31.0323 1.13169 31.151 1.35993C31.2119 1.47786 31.254 1.60417 31.2759 1.7345C31.3022 1.89558 31.3164 2.05833 31.3182 2.22144C31.3182 2.30596 31.3182 2.39144 31.3182 2.47788C31.3182 2.58256 31.3182 2.68821 31.3182 2.79386V17.2003C31.3182 17.306 31.3182 17.4106 31.3182 17.5182C31.3182 17.6027 31.3182 17.6882 31.3182 17.7727C31.3165 17.9365 31.3024 18.0999 31.2759 18.2616C31.2539 18.3913 31.2117 18.5169 31.151 18.6342C31.032 18.8626 30.8419 19.0483 30.6079 19.1644C30.4877 19.2236 30.3591 19.2647 30.2263 19.2864C30.0616 19.3118 29.8952 19.3256 29.7285 19.3277H29.4619H2.54081H2.27915C2.11177 19.3257 1.94476 19.3118 1.77942 19.2864C1.64592 19.2645 1.51657 19.2231 1.39578 19.1634C1.16237 19.0474 0.972618 18.8621 0.853754 18.6342C0.792997 18.5162 0.750877 18.39 0.728823 18.2597C0.702409 18.0986 0.68827 17.9358 0.686523 17.7727C0.686523 17.6872 0.686523 17.6018 0.686523 17.5173V2.48172C0.686523 2.39624 0.686523 2.31076 0.686523 2.22528C0.688233 2.06185 0.702371 1.89877 0.728823 1.73738C0.750943 1.60741 0.793063 1.48145 0.853754 1.36378C0.972673 1.13593 1.16241 0.950685 1.39578 0.834579C1.51635 0.775419 1.64534 0.734301 1.77844 0.712604C1.94375 0.68688 2.11077 0.673076 2.27816 0.671306C2.36571 0.671306 2.45326 0.671306 2.53983 0.671306H29.1383" fill="white"/>
<path d="M8.73758 6.72839C9.03433 6.38176 9.18174 5.93622 9.14877 5.4856C8.69343 5.5279 8.27252 5.74061 7.97422 6.07914C7.82626 6.24099 7.71282 6.43001 7.64054 6.63515C7.56825 6.8403 7.53855 7.05744 7.55319 7.27392C7.77956 7.27765 8.00377 7.23047 8.20846 7.13604C8.41316 7.04161 8.59286 6.90246 8.73364 6.72935" fill="#25384D"/>
<path d="M9.14343 7.35941C8.48926 7.32099 7.93347 7.72149 7.62163 7.72149C7.3098 7.72149 6.83467 7.37862 6.3133 7.38726C5.97686 7.39545 5.64847 7.48947 5.36078 7.65999C5.0731 7.8305 4.83614 8.07157 4.67346 8.35922C3.97109 9.54151 4.48754 11.2953 5.17122 12.2586C5.50273 12.7388 5.9031 13.2593 6.43036 13.2411C6.92812 13.2219 7.11896 12.9261 7.72886 12.9261C8.33876 12.9261 8.50894 13.2411 9.0362 13.2315C9.58315 13.2219 9.92154 12.7513 10.256 12.2778C10.4913 11.9398 10.6752 11.5704 10.802 11.181C10.4878 11.0473 10.2201 10.8276 10.0313 10.5483C9.84259 10.2691 9.74089 9.94234 9.73857 9.60778C9.74277 9.31075 9.82368 9.01957 9.9738 8.76119C10.1239 8.50282 10.3384 8.2856 10.5973 8.12967C10.4316 7.90132 10.2142 7.71325 9.96213 7.58002C9.71002 7.44679 9.42989 7.37196 9.14343 7.36133" fill="#25384D"/>
<path d="M14.8368 6.02971C15.1573 6.01392 15.4776 6.06383 15.7772 6.17624C16.0767 6.28865 16.3488 6.46106 16.5759 6.68236C16.803 6.90366 16.9802 7.16896 17.0959 7.46116C17.2116 7.75336 17.2634 8.06599 17.2479 8.37892C17.2613 8.69471 17.2069 9.00975 17.0882 9.30382C16.9696 9.5979 16.7893 9.86452 16.559 10.0866C16.3287 10.3087 16.0533 10.4813 15.7507 10.5935C15.448 10.7056 15.1247 10.7547 14.8014 10.7377H13.2275V13.1811H12.0903V6.02971H14.8368ZM13.2275 9.80612H14.5319C14.73 9.81769 14.9284 9.78963 15.115 9.72366C15.3016 9.6577 15.4724 9.55521 15.617 9.42248C15.7615 9.28976 15.8768 9.1296 15.9557 8.95182C16.0346 8.77405 16.0755 8.58241 16.0758 8.38867C16.0761 8.19492 16.0359 8.00315 15.9576 7.82512C15.8794 7.64708 15.7646 7.48654 15.6205 7.35334C15.4764 7.22014 15.306 7.11709 15.1196 7.0505C14.9333 6.98392 14.7349 6.9552 14.5368 6.96612H13.2275V9.80612Z" fill="#25384D"/>
<path d="M17.5449 11.6996C17.5449 10.7871 18.2611 10.2272 19.53 10.1629L20.9918 10.0726V9.67113C20.9918 9.09487 20.5905 8.74431 19.9206 8.74431C19.6691 8.71238 19.4145 8.77284 19.2062 8.91395C18.9979 9.05505 18.8507 9.26673 18.7933 9.50785H17.7584C17.8194 8.56567 18.6437 7.87512 19.9619 7.87512C21.2565 7.87512 22.0837 8.54742 22.0837 9.59045V13.1834H21.0322V12.3258H21.0066C20.8384 12.6166 20.5933 12.8579 20.2968 13.0245C20.0004 13.1911 19.6635 13.2768 19.3215 13.2727C19.0967 13.2942 18.8698 13.2695 18.6553 13.2001C18.4409 13.1308 18.2436 13.0185 18.0763 12.8703C17.909 12.7222 17.7753 12.5415 17.6838 12.3398C17.5922 12.1382 17.545 11.9201 17.5449 11.6996ZM20.9879 11.2289V10.8179L19.6727 10.8976C19.0175 10.9418 18.6477 11.2251 18.6477 11.6707C18.6477 12.1164 19.0333 12.4237 19.6225 12.4237C19.7937 12.4357 19.9656 12.4139 20.1279 12.3597C20.2903 12.3054 20.4398 12.2198 20.5676 12.108C20.6954 11.9961 20.7988 11.8603 20.8717 11.7087C20.9445 11.557 20.9854 11.3925 20.9918 11.2251L20.9879 11.2289Z" fill="#25384D"/>
<path d="M23.0756 15.1005V14.2361C23.1931 14.253 23.312 14.2597 23.4307 14.2563C23.6563 14.2743 23.8804 14.2073 24.0569 14.069C24.2334 13.9308 24.3491 13.7318 24.38 13.5129C24.38 13.5033 24.4784 13.1959 24.4784 13.1911L22.5493 7.97217H23.7367L25.0873 12.2144H25.1079L26.4586 7.97217H27.6164L25.6165 13.4591C25.1601 14.723 24.6328 15.1293 23.5252 15.1293C23.3749 15.1275 23.2248 15.1179 23.0756 15.1005Z" fill="#25384D"/>
</svg>
