<svg width="24" height="24" viewBox="0 0 24 24" fill="none" xmlns="http://www.w3.org/2000/svg">
<path d="M10.9395 3.21366L11.9306 2.19673C12.0298 2.09446 12.1477 2.01329 12.2775 1.95791C12.4074 1.90253 12.5466 1.87402 12.6872 1.87402C12.8278 1.87402 12.967 1.90253 13.0969 1.95791C13.2267 2.01329 13.3446 2.09446 13.4438 2.19673L22.1216 11.0953C22.2213 11.1971 22.3004 11.318 22.3544 11.4512C22.4084 11.5844 22.4362 11.7273 22.4362 11.8716C22.4362 12.0158 22.4084 12.1587 22.3544 12.2919C22.3004 12.4251 22.2213 12.5461 22.1216 12.6478L13.4438 21.5513C13.3446 21.6536 13.2267 21.7348 13.0969 21.7901C12.967 21.8455 12.8278 21.874 12.6872 21.874C12.5466 21.874 12.4074 21.8455 12.2775 21.7901C12.1477 21.7348 12.0298 21.6536 11.9306 21.5513L10.9395 20.5344C10.8389 20.4307 10.7595 20.3076 10.7059 20.1721C10.6523 20.0366 10.6255 19.8915 10.6272 19.7453C10.6288 19.5991 10.6588 19.4547 10.7155 19.3205C10.7721 19.1863 10.8543 19.0651 10.9571 18.9638L16.3356 13.7066H3.50738C3.36655 13.707 3.22705 13.6787 3.09688 13.6236C2.96672 13.5684 2.84847 13.4874 2.74892 13.3852C2.64938 13.283 2.5705 13.1616 2.51683 13.028C2.46315 12.8944 2.43574 12.7512 2.43616 12.6067V11.1413C2.43585 10.9969 2.46334 10.8538 2.51706 10.7203C2.57078 10.5868 2.64967 10.4655 2.74921 10.3634C2.84874 10.2613 2.96696 10.1803 3.09707 10.1252C3.22718 10.0701 3.36662 10.0419 3.50738 10.0422H16.3364L10.9579 4.78506C10.8539 4.68445 10.7707 4.56339 10.7133 4.42909C10.6559 4.29479 10.6254 4.15001 10.6237 4.00338C10.622 3.85674 10.649 3.71124 10.7033 3.57557C10.7576 3.43989 10.8379 3.31681 10.9395 3.21366Z" fill="black"/>
</svg>
