<svg width="24" height="24" viewBox="0 0 24 24" fill="none" xmlns="http://www.w3.org/2000/svg">
<path d="M13.1222 20.5344L12.131 21.5513C12.0318 21.6536 11.914 21.7348 11.7841 21.7901C11.6543 21.8455 11.515 21.874 11.3744 21.874C11.2338 21.874 11.0946 21.8455 10.9648 21.7901C10.8349 21.7348 10.717 21.6536 10.6179 21.5513L1.94002 12.6527C1.84033 12.551 1.76123 12.43 1.70725 12.2968C1.65328 12.1636 1.62549 12.0208 1.62549 11.8765C1.62549 11.7322 1.65328 11.5894 1.70725 11.4562C1.76123 11.3229 1.84033 11.202 1.94002 11.1002L10.6179 2.19673C10.717 2.09446 10.8349 2.01329 10.9648 1.95791C11.0946 1.90253 11.2338 1.87402 11.3744 1.87402C11.515 1.87402 11.6543 1.90253 11.7841 1.95791C11.914 2.01329 12.0318 2.09446 12.131 2.19673L13.1222 3.21366C13.2227 3.31731 13.3021 3.44048 13.3557 3.57596C13.4093 3.71144 13.4361 3.85653 13.4345 4.00274C13.4328 4.14896 13.4028 4.29338 13.3462 4.42756C13.2895 4.56174 13.2074 4.68299 13.1046 4.78424L7.72605 10.0414L20.5543 10.0414C20.6951 10.0411 20.8346 10.0693 20.9648 10.1245C21.0949 10.1797 21.2132 10.2607 21.3127 10.3629C21.4123 10.4651 21.4911 10.5865 21.5448 10.7201C21.5985 10.8537 21.6259 10.9968 21.6255 11.1413V12.6067C21.6258 12.7512 21.5983 12.8942 21.5446 13.0277C21.4909 13.1612 21.412 13.2825 21.3124 13.3846C21.2129 13.4868 21.0947 13.5677 20.9646 13.6228C20.8345 13.6779 20.695 13.7061 20.5543 13.7058L7.72525 13.7058L13.1038 18.963C13.2077 19.0636 13.2909 19.1847 13.3483 19.319C13.4058 19.4533 13.4362 19.598 13.438 19.7447C13.4397 19.8913 13.4126 20.0368 13.3583 20.1725C13.3041 20.3082 13.2238 20.4312 13.1222 20.5344Z" fill="#25384D"/>
</svg>
