<svg width="25" height="28" viewBox="0 0 28 28" fill="none" xmlns="http://www.w3.org/2000/svg">
<path fill-rule="evenodd" clip-rule="evenodd" d="M27.3327 14C27.3327 6.63596 21.3633 0.666626 13.9993 0.666626C6.63535 0.666626 0.666016 6.63596 0.666016 14C0.666016 21.364 6.63535 27.3333 13.9993 27.3333C21.3633 27.3333 27.3327 21.364 27.3327 14ZM9.29268 13.3733C9.10542 13.1858 9.00023 12.9316 9.00023 12.6666C9.00023 12.4016 9.10542 12.1475 9.29268 11.96L13.2927 7.95996C13.4802 7.77269 13.7343 7.66751 13.9993 7.66751C14.2643 7.66751 14.5185 7.77269 14.706 7.95996L18.706 11.96C18.8043 12.0515 18.8831 12.1619 18.9377 12.2846C18.9924 12.4072 19.0218 12.5397 19.0241 12.6739C19.0265 12.8082 19.0018 12.9416 18.9515 13.0661C18.9012 13.1906 18.8264 13.3037 18.7314 13.3987C18.6364 13.4936 18.5233 13.5685 18.3988 13.6188C18.2743 13.6691 18.1409 13.6938 18.0067 13.6914C17.8724 13.689 17.74 13.6597 17.6173 13.605C17.4946 13.5503 17.3842 13.4715 17.2927 13.3733L14.9993 11.08V19.3333C14.9993 19.5985 14.894 19.8529 14.7065 20.0404C14.5189 20.2279 14.2646 20.3333 13.9993 20.3333C13.7341 20.3333 13.4798 20.2279 13.2922 20.0404C13.1047 19.8529 12.9993 19.5985 12.9993 19.3333V11.08L10.706 13.3733C10.5185 13.5606 10.2643 13.6657 9.99935 13.6657C9.73435 13.6657 9.48018 13.5606 9.29268 13.3733Z" fill="#1C5C5F"/>
</svg>
