<svg width="24" height="24" viewBox="0 0 24 24" fill="none" xmlns="http://www.w3.org/2000/svg">
<path d="M16.6616 12.8493L10.0808 19.645C9.86079 19.8727 9.56653 20 9.26025 20C8.95398 20 8.65972 19.8727 8.43969 19.645L7.3456 18.5153C7.23784 18.4063 7.152 18.275 7.09334 18.1294C7.03468 17.9838 7.00442 17.8269 7.00442 17.6684C7.00442 17.5099 7.03468 17.353 7.09334 17.2074C7.152 17.0618 7.23784 16.9304 7.3456 16.8215L12.0051 12L7.34117 7.18324C7.23341 7.07428 7.14758 6.94297 7.08892 6.79736C7.03026 6.65174 7 6.49487 7 6.33633C7 6.1778 7.03026 6.02093 7.08892 5.87531C7.14758 5.72969 7.23341 5.59839 7.34117 5.48942L8.43526 4.35496C8.65529 4.12729 8.94956 4 9.25583 4C9.5621 4 9.85637 4.12729 10.0764 4.35496L16.6572 11.1507C16.7654 11.2599 16.8517 11.3915 16.9106 11.5375C16.9696 11.6836 17 11.841 17 12C17 12.159 16.9696 12.3164 16.9106 12.4625C16.8517 12.6085 16.7654 12.7401 16.6572 12.8493H16.6616Z" fill="white"/>
</svg>
