<svg width="24" height="24" viewBox="0 0 24 24" fill="none" xmlns="http://www.w3.org/2000/svg">
<path d="M12.2828 22.4881C13.6114 22.4966 14.9278 22.2324 16.1503 21.7116C17.3443 21.203 18.4284 20.4677 19.3428 19.5463C20.259 18.6276 20.9932 17.5437 21.5068 16.3518C22.023 15.1292 22.2891 13.8155 22.2891 12.4882C22.2891 11.161 22.023 9.84718 21.5068 8.62458C20.4678 6.21892 18.5492 4.30152 16.1438 3.26479C14.9199 2.75223 13.6063 2.48828 12.2795 2.48828C10.9528 2.48828 9.6392 2.75223 8.41528 3.26479C7.22273 3.77251 6.14057 4.50801 5.22931 5.43012C4.31624 6.35019 3.58417 7.43383 3.07129 8.62458C2.55504 9.84718 2.28906 11.161 2.28906 12.4882C2.28906 13.8155 2.55504 15.1292 3.07129 16.3518C3.58488 17.5436 4.31912 18.6275 5.23529 19.5463C6.14972 20.4676 7.23386 21.2029 8.4278 21.7116C9.64618 22.2316 10.9582 22.4959 12.2828 22.4881ZM12.2828 21.0107C11.1635 21.018 10.0541 20.8017 9.01947 20.3746C7.98482 19.9474 7.0458 19.318 6.25732 18.5232C5.48027 17.742 4.86127 16.818 4.43433 15.802C3.55938 13.6792 3.55938 11.2962 4.43433 9.17341C4.86134 8.15742 5.48033 7.23349 6.25732 6.45226C7.03207 5.67191 7.95135 5.05011 8.96381 4.62164C11.0876 3.74628 13.471 3.74628 15.5948 4.62164C16.6098 5.0489 17.5315 5.67079 18.3078 6.45226C19.0859 7.23525 19.7089 8.15854 20.1438 9.17341C20.5841 10.2227 20.8114 11.3491 20.8124 12.4871C20.8135 13.6251 20.5882 14.7519 20.1498 15.802C19.7188 16.8174 19.0979 17.7411 18.3203 18.5232C17.5303 19.3195 16.5892 19.9498 15.5523 20.377C14.5154 20.8042 13.4041 21.0196 12.2828 21.0107Z" fill="#38857B"/>
<path d="M7.85336 16.0617H16.7114C16.8982 16.0723 17.0823 16.0139 17.2289 15.8976C17.2907 15.8449 17.3398 15.779 17.3726 15.7047C17.4055 15.6303 17.4211 15.5495 17.4184 15.4683C17.4098 15.1776 17.2927 14.9007 17.0904 14.6919C16.8717 14.4434 16.6446 14.1971 16.4089 13.9529C16.1798 13.6943 16.0396 13.3691 16.0089 13.0249C15.9542 12.6246 15.91 12.2354 15.8764 11.8571C15.8722 11.0078 15.6962 10.1681 15.3589 9.38862C15.2095 9.06566 14.9959 8.77653 14.7312 8.5388C14.4666 8.30106 14.1563 8.11971 13.8194 8.00578C13.722 7.65955 13.5295 7.34757 13.2639 7.10524C12.991 6.86511 12.64 6.73267 12.2766 6.73267C11.9132 6.73267 11.5623 6.86511 11.2894 7.10524C11.0266 7.34892 10.8362 7.66059 10.7394 8.00578C10.4042 8.12167 10.0957 8.3038 9.83224 8.54136C9.5688 8.77892 9.35583 9.06704 9.2059 9.38862C8.86444 10.167 8.68627 11.0071 8.6824 11.8571C8.64907 12.236 8.60269 12.6233 8.54336 13.0188C8.50703 13.3617 8.37111 13.6865 8.15237 13.9529C7.92504 14.1971 7.70005 14.4434 7.47738 14.6919C7.27165 14.899 7.15214 15.1765 7.14291 15.4683C7.14012 15.5489 7.15505 15.6292 7.18667 15.7033C7.21829 15.7775 7.26582 15.8438 7.32589 15.8976C7.47486 16.0167 7.66316 16.0753 7.85336 16.0617ZM12.2824 18.2966C12.7005 18.3099 13.1075 18.1605 13.4179 17.8798C13.7128 17.6178 13.8939 17.2508 13.9224 16.8572H10.6419C10.6784 17.25 10.8607 17.6149 11.1529 17.8798C11.4602 18.1617 11.8657 18.3118 12.2824 18.2981V18.2966Z" fill="#38857B"/>
</svg>
