<svg width="241" height="240" viewBox="0 0 241 240" fill="none" xmlns="http://www.w3.org/2000/svg">
<g clip-path="url(#clip0_850_104304)">
<path d="M152.863 53.9742H88.193C86.7193 53.9761 85.3065 54.5766 84.2644 55.6442C83.2224 56.7117 82.6362 58.1591 82.6344 59.6689V206.913L81.8932 207.145L66.0287 212.122C65.2769 212.357 64.4648 212.276 63.7707 211.898C63.0766 211.52 62.5573 210.876 62.3268 210.106L15.1372 52.1937C14.9075 51.4235 14.9858 50.5913 15.3548 49.8801C15.7238 49.169 16.3533 48.637 17.105 48.4011L41.5521 40.7323L112.425 18.508L136.872 10.8393C137.244 10.722 137.635 10.681 138.023 10.7186C138.41 10.7563 138.787 10.8719 139.131 11.0588C139.474 11.2457 139.779 11.5002 140.027 11.8078C140.274 12.1154 140.461 12.47 140.574 12.8514L152.637 53.215L152.863 53.9742Z" fill="#FEF9DE"/>
<path d="M166.973 53.2167L152.436 4.56937C152.194 3.75881 151.798 3.00502 151.272 2.35108C150.746 1.69714 150.099 1.15586 149.368 0.758166C148.637 0.360475 147.837 0.114165 147.014 0.0333202C146.19 -0.0475242 145.359 0.0386814 144.568 0.287002L110.197 11.0651L39.3277 33.2931L4.95654 44.075C3.35984 44.5772 2.0229 45.708 1.23918 47.2191C0.455454 48.7302 0.288981 50.4981 0.776303 52.1348L50.4635 218.392C50.8594 219.713 51.6582 220.869 52.7426 221.691C53.8271 222.513 55.1402 222.957 56.4892 222.959C57.1136 222.959 57.7344 222.863 58.3309 222.674L81.8923 215.286L82.6334 215.051V214.257L81.8923 214.489L58.1123 221.949C56.7029 222.389 55.1806 222.238 53.8794 221.53C52.5782 220.822 51.6043 219.614 51.1713 218.171L1.48797 51.9108C1.27343 51.1959 1.19866 50.4447 1.26794 49.7001C1.33721 48.9556 1.54915 48.2323 1.89165 47.5718C2.23414 46.9113 2.70046 46.3265 3.26389 45.8509C3.82731 45.3753 4.47678 45.0182 5.17511 44.8001L39.5463 34.0182L110.416 11.794L144.787 1.01213C145.317 0.846526 145.867 0.76209 146.421 0.761561C147.61 0.764295 148.766 1.15683 149.721 1.88167C150.676 2.60651 151.379 3.62556 151.728 4.78957L166.199 53.2168L166.429 53.976H167.199L166.973 53.2167Z" fill="#38857B"/>
<path d="M45.9621 48.5259C45.2479 48.5254 44.5526 48.2904 43.9783 47.8554C43.4039 47.4204 42.9808 46.8083 42.7709 46.1089L37.9978 30.1366C37.8695 29.7076 37.825 29.2569 37.8668 28.8102C37.9086 28.3636 38.0358 27.9297 38.2413 27.5334C38.4468 27.1372 38.7265 26.7862 39.0644 26.5007C39.4023 26.2152 39.7917 26.0007 40.2106 25.8694L105.41 5.4204C106.256 5.15599 107.169 5.24617 107.95 5.67114C108.731 6.09611 109.316 6.82115 109.575 7.68713L114.349 23.6595C114.606 24.526 114.518 25.462 114.104 26.262C113.689 27.062 112.981 27.6608 112.136 27.927L46.9365 48.376C46.6208 48.4752 46.2924 48.5258 45.9621 48.5259Z" fill="#38857B"/>
<path d="M70.9663 17.0666C75.0596 17.0666 78.3778 13.6671 78.3778 9.47371C78.3778 5.28029 75.0596 1.88086 70.9663 1.88086C66.873 1.88086 63.5547 5.28029 63.5547 9.47371C63.5547 13.6671 66.873 17.0666 70.9663 17.0666Z" fill="#38857B"/>
<path d="M70.9667 14.2821C73.5587 14.2821 75.6599 12.1294 75.6599 9.47404C75.6599 6.81864 73.5587 4.66602 70.9667 4.66602C68.3747 4.66602 66.2734 6.81864 66.2734 9.47404C66.2734 12.1294 68.3747 14.2821 70.9667 14.2821Z" fill="white"/>
<path d="M223.823 221.018H98.5679C97.7328 221.017 96.9321 220.676 96.3416 220.071C95.7511 219.466 95.4189 218.646 95.418 217.791V64.0356C95.4189 63.18 95.7511 62.3598 96.3416 61.7548C96.9321 61.1498 97.7328 60.8095 98.5679 60.8086H223.823C224.658 60.8096 225.459 61.1499 226.05 61.7548C226.64 62.3598 226.972 63.18 226.973 64.0356V217.791C226.972 218.646 226.64 219.466 226.05 220.071C225.459 220.676 224.658 221.017 223.823 221.018Z" fill="#FEF9DE"/>
<path d="M166.199 53.2168H88.1924C86.5223 53.2192 84.9213 53.9 83.7404 55.1098C82.5594 56.3196 81.8949 57.9598 81.8926 59.6707V214.489L82.6337 214.257V59.6707C82.6355 58.161 83.2217 56.7136 84.2638 55.646C85.3059 54.5785 86.7187 53.9779 88.1924 53.9761H166.429L166.199 53.2168ZM234.2 53.2168H88.1924C86.5223 53.2192 84.9213 53.9 83.7404 55.1098C82.5594 56.3196 81.8949 57.9598 81.8926 59.6707V233.547C81.8949 235.258 82.5594 236.898 83.7404 238.108C84.9213 239.318 86.5223 239.998 88.1924 240.001H234.2C235.87 239.998 237.471 239.318 238.652 238.108C239.833 236.898 240.498 235.258 240.5 233.547V59.6707C240.498 57.9598 239.833 56.3196 238.652 55.1098C237.471 53.9 235.87 53.2192 234.2 53.2168ZM239.759 233.547C239.757 235.057 239.171 236.504 238.129 237.572C237.087 238.639 235.674 239.24 234.2 239.242H88.1924C86.7187 239.24 85.3059 238.639 84.2638 237.572C83.2217 236.504 82.6355 235.057 82.6337 233.547V59.6707C82.6355 58.161 83.2217 56.7136 84.2638 55.646C85.3059 54.5785 86.7187 53.9779 88.1924 53.9761H234.2C235.674 53.9779 237.087 54.5785 238.129 55.646C239.171 56.7136 239.757 58.161 239.759 59.6707V233.547Z" fill="#38857B"/>
<path d="M195.289 69.9206H127.103C126.219 69.9196 125.371 69.5593 124.746 68.9188C124.12 68.2782 123.769 67.4097 123.768 66.5039V49.7996C123.769 48.8937 124.12 48.0252 124.746 47.3847C125.371 46.7441 126.219 46.3838 127.103 46.3828H195.289C196.173 46.3838 197.021 46.7441 197.646 47.3847C198.272 48.0252 198.623 48.8937 198.624 49.7996V66.5039C198.623 67.4097 198.272 68.2782 197.646 68.9188C197.021 69.5593 196.173 69.9196 195.289 69.9206Z" fill="#38857B"/>
<path d="M161.197 47.5216C165.29 47.5216 168.608 44.1222 168.608 39.9288C168.608 35.7354 165.29 32.3359 161.197 32.3359C157.103 32.3359 153.785 35.7354 153.785 39.9288C153.785 44.1222 157.103 47.5216 161.197 47.5216Z" fill="#38857B"/>
<path d="M161.196 44.5522C163.689 44.5522 165.71 42.4817 165.71 39.9275C165.71 37.3733 163.689 35.3027 161.196 35.3027C158.703 35.3027 156.682 37.3733 156.682 39.9275C156.682 42.4817 158.703 44.5522 161.196 44.5522Z" fill="white"/>
</g>
<defs>
<clipPath id="clip0_850_104304">
<rect width="240" height="240" fill="white" transform="translate(0.5)"/>
</clipPath>
</defs>
</svg>
