<svg width="24" height="24" viewBox="0 0 24 24" fill="none" xmlns="http://www.w3.org/2000/svg">
<path d="M13.1089 15.9817C12.9111 15.9964 12.7114 16.0038 12.5098 16.0038C12.2647 16.0038 12.0223 15.9925 11.7828 15.9714C10.5978 15.8664 9.44956 15.5065 8.41663 14.9163C7.38371 14.3262 6.49053 13.5198 5.79826 12.5524C5.78003 12.5263 5.75549 12.5054 5.72694 12.4915C5.69839 12.4775 5.66677 12.4711 5.63505 12.4727C5.60333 12.4744 5.57254 12.484 5.54558 12.5008C5.51862 12.5176 5.49637 12.541 5.48092 12.5688L2.10592 18.6344C1.97748 18.8688 1.95733 19.15 2.09279 19.3788C2.16331 19.4922 2.26155 19.5858 2.37825 19.6507C2.49495 19.7157 2.62627 19.7499 2.75983 19.75H6.41608C6.54344 19.7453 6.66975 19.7747 6.78198 19.8351C6.89421 19.8955 6.98829 19.9847 7.05451 20.0936L8.8667 23.125C8.93301 23.2375 9.02711 23.3311 9.13998 23.3967C9.25284 23.4624 9.38067 23.4979 9.51123 23.5C9.78967 23.4845 10.078 23.3036 10.1937 23.05L13.2926 16.2461C13.306 16.2165 13.3115 16.184 13.3085 16.1517C13.3056 16.1194 13.2943 16.0884 13.2758 16.0618C13.2573 16.0351 13.2322 16.0138 13.2029 15.9997C13.1736 15.9857 13.1413 15.9795 13.1089 15.9817ZM22.8889 18.6194L19.5359 12.5645C19.5204 12.5371 19.4983 12.5139 19.4715 12.4973C19.4447 12.4807 19.4141 12.4711 19.3826 12.4694C19.3511 12.4677 19.3197 12.474 19.2912 12.4877C19.2628 12.5014 19.2383 12.522 19.22 12.5477C18.2979 13.8396 17.0236 14.839 15.5492 15.4267C15.3682 15.4981 15.2217 15.6366 15.1405 15.8134L13.4126 19.615C13.3904 19.6635 13.3789 19.7163 13.3789 19.7697C13.3789 19.8231 13.3904 19.8759 13.4126 19.9244L14.8315 23.0458C14.9464 23.2994 15.2342 23.4845 15.5122 23.5C15.6428 23.4968 15.7705 23.4601 15.8829 23.3935C15.9953 23.3268 16.0888 23.2325 16.1544 23.1194L17.9605 20.0922C18.0959 19.8649 18.3415 19.7486 18.6064 19.75H22.2987C22.6114 19.75 22.8481 19.5869 22.955 19.2813C22.9925 19.1727 23.0061 19.0573 22.9947 18.9431C22.9833 18.8288 22.9472 18.7183 22.8889 18.6194Z" fill="#25384D"/>
<path d="M12.5117 10C13.7546 10 14.7622 8.99264 14.7622 7.75C14.7622 6.50736 13.7546 5.5 12.5117 5.5C11.2688 5.5 10.2612 6.50736 10.2612 7.75C10.2612 8.99264 11.2688 10 12.5117 10Z" fill="#25384D"/>
<path d="M12.5117 1C8.78891 1 5.76172 4.02766 5.76172 7.75C5.76172 11.4723 8.79031 14.5 12.5117 14.5C16.2331 14.5 19.2617 11.4719 19.2617 7.75C19.2617 4.02812 16.2341 1 12.5117 1ZM12.5117 11.5C11.77 11.5 11.045 11.2801 10.4283 10.868C9.81165 10.456 9.331 9.87029 9.04717 9.18506C8.76334 8.49984 8.68908 7.74584 8.83377 7.01841C8.97847 6.29098 9.33562 5.6228 9.86007 5.09835C10.3845 4.5739 11.0527 4.21675 11.7801 4.07206C12.5076 3.92736 13.2616 4.00162 13.9468 4.28545C14.632 4.56928 15.2177 5.04993 15.6297 5.66661C16.0418 6.2833 16.2617 7.00832 16.2617 7.75C16.2605 8.74418 15.865 9.69729 15.162 10.4003C14.459 11.1033 13.5059 11.4988 12.5117 11.5Z" fill="#25384D"/>
</svg>
