<svg width="24" height="24" viewBox="0 0 24 24" fill="none" xmlns="http://www.w3.org/2000/svg">
<path d="M12.8167 8.91163L10.2622 6.65116H16.1944V9.90698H17.7778V5.25581H10.2622L12.8167 2.99535L11.6978 2L7.22222 5.95349L11.6978 9.90698L12.8167 8.91163ZM12.5 13.6279C11.8737 13.6279 11.2614 13.7916 10.7407 14.0982C10.2199 14.4049 9.81406 14.8407 9.57438 15.3507C9.3347 15.8606 9.27199 16.4217 9.39418 16.963C9.51637 17.5044 9.81796 18.0016 10.2608 18.3919C10.7037 18.7822 11.2679 19.048 11.8822 19.1557C12.4965 19.2634 13.1332 19.2081 13.7118 18.9969C14.2905 18.7857 14.785 18.428 15.133 17.969C15.4809 17.5101 15.6667 16.9706 15.6667 16.4186C15.6667 15.6785 15.333 14.9686 14.7392 14.4453C14.1453 13.9219 13.3399 13.6279 12.5 13.6279ZM3 10.8372V22H22V10.8372M19.8889 18.2791C19.329 18.2791 18.792 18.4751 18.3961 18.824C18.0002 19.1729 17.7778 19.6461 17.7778 20.1395H7.22222C7.22222 19.6461 6.9998 19.1729 6.60389 18.824C6.20798 18.4751 5.67101 18.2791 5.11111 18.2791V14.5581C5.67101 14.5581 6.20798 14.3621 6.60389 14.0132C6.9998 13.6643 7.22222 13.1911 7.22222 12.6977H17.7778C17.7778 13.1911 18.0002 13.6643 18.3961 14.0132C18.792 14.3621 19.329 14.5581 19.8889 14.5581V18.2791Z" fill="#1C5C5F"/>
</svg>
