<svg width="32" height="32" viewBox="0 0 32 32" fill="none" xmlns="http://www.w3.org/2000/svg">
<path d="M17.0889 11.8821L13.683 8.86818H21.5926V13.2093H23.7037V7.00771H13.683L17.0889 3.99376L15.597 2.66663L9.62963 7.93794L15.597 13.2093L17.0889 11.8821ZM16.6667 18.1705C15.8316 18.1705 15.0153 18.3887 14.3209 18.7976C13.6266 19.2065 13.0854 19.7876 12.7658 20.4675C12.4463 21.1474 12.3627 21.8956 12.5256 22.6174C12.6885 23.3391 13.0906 24.0021 13.6811 24.5225C14.2716 25.0429 15.0239 25.3973 15.843 25.5409C16.662 25.6844 17.5109 25.6108 18.2824 25.3291C19.054 25.0475 19.7134 24.5706 20.1773 23.9587C20.6413 23.3468 20.8889 22.6274 20.8889 21.8914C20.8889 20.9046 20.444 19.9581 19.6522 19.2603C18.8604 18.5625 17.7865 18.1705 16.6667 18.1705ZM4 14.4496V29.3333H29.3333V14.4496M26.5185 24.3721C25.772 24.3721 25.056 24.6334 24.5281 25.0986C24.0003 25.5638 23.7037 26.1948 23.7037 26.8527H9.62963C9.62963 26.1948 9.33307 25.5638 8.80519 25.0986C8.27731 24.6334 7.56135 24.3721 6.81481 24.3721V19.4108C7.56135 19.4108 8.27731 19.1495 8.80519 18.6843C9.33307 18.219 9.62963 17.5881 9.62963 16.9302H23.7037C23.7037 17.5881 24.0003 18.219 24.5281 18.6843C25.056 19.1495 25.772 19.4108 26.5185 19.4108V24.3721Z" fill="#1C5C5F"/>
</svg>
