<svg width="24" height="24" viewBox="0 0 24 24" fill="none" xmlns="http://www.w3.org/2000/svg">
<path d="M11.4965 21.4863C16.9942 21.4591 21.526 16.9823 21.6185 11.4871C21.711 5.99193 17.3293 1.55933 11.8316 1.5866C6.33385 1.61388 1.80207 6.0907 1.70955 11.5859C1.61703 17.081 5.99881 21.5136 11.4965 21.4863Z" fill="#018485"/>
<path fill-rule="evenodd" clip-rule="evenodd" d="M16.1804 7.66447C16.2552 7.72222 16.3175 7.7952 16.3636 7.879C16.4097 7.96281 16.4385 8.05571 16.4485 8.15211C16.4584 8.24851 16.4492 8.34641 16.4214 8.43992C16.3936 8.53342 16.3478 8.6206 16.2868 8.69618L16.2779 8.70683L10.773 15.3123C10.6922 15.4081 10.5915 15.4841 10.4785 15.5341C10.3655 15.5842 10.2434 15.607 10.1217 15.6009C9.99778 15.6093 9.87417 15.5902 9.75926 15.5449C9.64435 15.4996 9.54085 15.4291 9.45581 15.3383L6.85754 12.5382C6.79297 12.4695 6.7429 12.3877 6.71036 12.2978C6.67783 12.208 6.6635 12.1118 6.66823 12.0153C6.67297 11.9187 6.69668 11.8237 6.73793 11.736C6.77918 11.6483 6.83711 11.5696 6.90823 11.5049L6.93641 11.4803C7.09863 11.3466 7.30214 11.2788 7.50726 11.29C7.71238 11.3012 7.9044 11.3906 8.04588 11.5408L10.0238 13.6844L15.0989 7.78233C15.2339 7.62544 15.4208 7.52594 15.6217 7.50405C15.8226 7.48216 16.0223 7.53952 16.1804 7.66447Z" fill="white"/>
</svg>
