<svg width="24" height="24" viewBox="0 0 24 24" fill="none" xmlns="http://www.w3.org/2000/svg">
<path d="M6.33842 13.1507L12.9192 6.35495C13.1392 6.12729 13.4335 6 13.7397 6C14.046 6 14.3403 6.12729 14.5603 6.35495L15.6544 7.48469C15.7622 7.59366 15.848 7.72496 15.9067 7.87058C15.9653 8.0162 15.9956 8.17307 15.9956 8.3316C15.9956 8.49014 15.9653 8.64701 15.9067 8.79263C15.848 8.93825 15.7622 9.06955 15.6544 9.17852L10.9949 14L15.6588 18.8168C15.7666 18.9257 15.8524 19.057 15.9111 19.2026C15.9697 19.3483 16 19.5051 16 19.6637C16 19.8222 15.9697 19.9791 15.9111 20.1247C15.8524 20.2703 15.7666 20.4016 15.6588 20.5106L14.5647 21.645C14.3447 21.8727 14.0504 22 13.7442 22C13.4379 22 13.1436 21.8727 12.9236 21.645L6.34284 14.8493C6.23458 14.7401 6.14832 14.6085 6.08937 14.4625C6.03041 14.3164 6 14.159 6 14C6 13.841 6.03041 13.6836 6.08937 13.5375C6.14832 13.3915 6.23458 13.2599 6.34284 13.1507H6.33842Z" fill="#38857b"/>
</svg>
