<svg width="24" height="24" viewBox="0 0 24 24" fill="none" xmlns="http://www.w3.org/2000/svg">
<path d="M11.1507 16.6616L4.35495 10.0808C4.12729 9.86079 4 9.56653 4 9.26025C4 8.95398 4.12729 8.65972 4.35495 8.43969L5.48469 7.3456C5.59366 7.23784 5.72496 7.152 5.87058 7.09334C6.0162 7.03468 6.17307 7.00442 6.3316 7.00442C6.49014 7.00442 6.64701 7.03468 6.79263 7.09334C6.93825 7.152 7.06955 7.23784 7.17852 7.3456L12 12.0051L16.8168 7.34117C16.9257 7.23341 17.057 7.14758 17.2026 7.08892C17.3483 7.03026 17.5051 7 17.6637 7C17.8222 7 17.9791 7.03026 18.1247 7.08892C18.2703 7.14758 18.4016 7.23341 18.5106 7.34117L19.645 8.43526C19.8727 8.65529 20 8.94956 20 9.25583C20 9.5621 19.8727 9.85637 19.645 10.0764L12.8493 16.6572C12.7401 16.7654 12.6085 16.8517 12.4625 16.9106C12.3164 16.9696 12.159 17 12 17C11.841 17 11.6836 16.9696 11.5375 16.9106C11.3915 16.8517 11.2599 16.7654 11.1507 16.6572V16.6616Z" fill="#25384D"/>
</svg>
