<svg width="24" height="24" viewBox="0 0 24 24" fill="none" xmlns="http://www.w3.org/2000/svg">
<path d="M12.8493 7.33842L19.645 13.9192C19.8727 14.1392 20 14.4335 20 14.7397C20 15.046 19.8727 15.3403 19.645 15.5603L18.5153 16.6544C18.4063 16.7622 18.275 16.848 18.1294 16.9067C17.9838 16.9653 17.8269 16.9956 17.6684 16.9956C17.5099 16.9956 17.353 16.9653 17.2074 16.9067C17.0618 16.848 16.9304 16.7622 16.8215 16.6544L12 11.9949L7.18324 16.6588C7.07428 16.7666 6.94297 16.8524 6.79736 16.9111C6.65174 16.9697 6.49487 17 6.33633 17C6.1778 17 6.02093 16.9697 5.87531 16.9111C5.72969 16.8524 5.59839 16.7666 5.48942 16.6588L4.35496 15.5647C4.12729 15.3447 4 15.0504 4 14.7442C4 14.4379 4.12729 14.1436 4.35496 13.9236L11.1507 7.34284C11.2599 7.23458 11.3915 7.14832 11.5375 7.08937C11.6836 7.03041 11.841 7 12 7C12.159 7 12.3164 7.03041 12.4625 7.08937C12.6085 7.14832 12.7401 7.23458 12.8493 7.34284V7.33842Z" fill="#25384D"/>
</svg>
