<svg width="24" height="24" viewBox="0 0 24 24" fill="none" xmlns="http://www.w3.org/2000/svg">
<path d="M7.5 8.25C8.29565 8.25 9.05871 7.93393 9.62132 7.37132C10.1839 6.80871 10.5 6.04565 10.5 5.25C10.5 4.45435 10.1839 3.69129 9.62132 3.12868C9.05871 2.56607 8.29565 2.25 7.5 2.25C6.70435 2.25 5.94129 2.56607 5.37868 3.12868C4.81607 3.69129 4.5 4.45435 4.5 5.25C4.5 6.04565 4.81607 6.80871 5.37868 7.37132C5.94129 7.93393 6.70435 8.25 7.5 8.25ZM1.5 11.625C1.5 11.1277 1.69754 10.6508 2.04917 10.2992C2.40081 9.94754 2.87772 9.75 3.375 9.75H8.15625C7.96981 10.2281 7.87442 10.7368 7.875 11.25C7.875 12.645 8.56725 13.8787 9.62775 14.625H7.875C7.32654 14.6249 6.78856 14.7752 6.31954 15.0595C5.85052 15.3438 5.46841 15.7512 5.21475 16.2375C3.77775 15.8678 2.85825 15.1485 2.2905 14.3325C1.5 13.1963 1.5 12.0195 1.5 11.8125V11.625ZM18.7853 16.2375C20.2222 15.8678 21.1417 15.1485 21.7095 14.3325C22.5 13.1963 22.5 12.0188 22.5 11.8125V11.625C22.5 11.1277 22.3025 10.6508 21.9508 10.2992C21.5992 9.94754 21.1223 9.75 20.625 9.75H15.8438C16.0253 10.215 16.125 10.7205 16.125 11.25C16.125 12.645 15.4327 13.8787 14.3722 14.625H16.125C16.6735 14.6249 17.2114 14.7752 17.6805 15.0595C18.1495 15.3438 18.5316 15.7512 18.7853 16.2375ZM19.5 5.25C19.5 6.04565 19.1839 6.80871 18.6213 7.37132C18.0587 7.93393 17.2956 8.25 16.5 8.25C15.7044 8.25 14.9413 7.93393 14.3787 7.37132C13.8161 6.80871 13.5 6.04565 13.5 5.25C13.5 4.45435 13.8161 3.69129 14.3787 3.12868C14.9413 2.56607 15.7044 2.25 16.5 2.25C17.2956 2.25 18.0587 2.56607 18.6213 3.12868C19.1839 3.69129 19.5 4.45435 19.5 5.25ZM6 17.625C6 17.1277 6.19754 16.6508 6.54917 16.2992C6.90081 15.9475 7.37772 15.75 7.875 15.75H16.125C16.3712 15.75 16.615 15.7985 16.8425 15.8927C17.07 15.987 17.2767 16.1251 17.4508 16.2992C17.6249 16.4733 17.763 16.68 17.8573 16.9075C17.9515 17.135 18 17.3788 18 17.625V17.8125C18 18.0188 18 19.1963 17.2095 20.3325C16.3845 21.5182 14.817 22.5 12 22.5C9.18375 22.5 7.6155 21.5182 6.7905 20.3325C6 19.1963 6 18.0195 6 17.8125V17.625ZM12 14.25C12.7956 14.25 13.5587 13.9339 14.1213 13.3713C14.6839 12.8087 15 12.0456 15 11.25C15 10.4544 14.6839 9.69129 14.1213 9.12868C13.5587 8.56607 12.7956 8.25 12 8.25C11.2044 8.25 10.4413 8.56607 9.87868 9.12868C9.31607 9.69129 9 10.4544 9 11.25C9 12.0456 9.31607 12.8087 9.87868 13.3713C10.4413 13.9339 11.2044 14.25 12 14.25Z" fill="#25384D"/>
</svg>
