<svg width="24" height="24" viewBox="0 0 24 24" fill="none" xmlns="http://www.w3.org/2000/svg">
<path d="M2 4.5C2 3.12109 3.12109 2 4.5 2H10.75V7C10.75 7.69141 11.3086 8.25 12 8.25H17V13.875H8.875C7.49609 13.875 6.375 14.9961 6.375 16.375V22H4.5C3.12109 22 2 20.8789 2 19.5V4.5ZM17 7H12V2L17 7ZM9.8125 15.75H10.4375C11.3008 15.75 12 16.4492 12 17.3125V17.625C12 17.9688 11.7188 18.25 11.375 18.25C11.0312 18.25 10.75 17.9688 10.75 17.625V17.3125C10.75 17.1406 10.6094 17 10.4375 17H9.8125C9.64062 17 9.5 17.1406 9.5 17.3125V20.4375C9.5 20.6094 9.64062 20.75 9.8125 20.75H10.4375C10.6094 20.75 10.75 20.6094 10.75 20.4375V20.125C10.75 19.7812 11.0312 19.5 11.375 19.5C11.7188 19.5 12 19.7812 12 20.125V20.4375C12 21.3008 11.3008 22 10.4375 22H9.8125C8.94922 22 8.25 21.3008 8.25 20.4375V17.3125C8.25 16.4492 8.94922 15.75 9.8125 15.75ZM15.0117 15.75H16.375C16.7188 15.75 17 16.0312 17 16.375C17 16.7188 16.7188 17 16.375 17H15.0117C14.7305 17 14.5 17.2305 14.5 17.5117C14.5 17.7148 14.6172 17.8984 14.8047 17.9805L16.2656 18.6289C16.9023 18.9102 17.3125 19.543 17.3125 20.2383C17.3125 21.2109 16.5234 22 15.5508 22H13.875C13.5312 22 13.25 21.7188 13.25 21.375C13.25 21.0312 13.5312 20.75 13.875 20.75H15.5508C15.832 20.75 16.0625 20.5195 16.0625 20.2383C16.0625 20.0352 15.9453 19.8516 15.7578 19.7695L14.2969 19.1211C13.6602 18.8398 13.25 18.207 13.25 17.5117C13.25 16.5391 14.0391 15.75 15.0117 15.75ZM18.875 15.75C19.2188 15.75 19.5 16.0312 19.5 16.375V17.6094C19.5 18.5078 19.7148 19.3906 20.125 20.1875C20.5352 19.3945 20.75 18.5117 20.75 17.6094V16.375C20.75 16.0312 21.0312 15.75 21.375 15.75C21.7188 15.75 22 16.0312 22 16.375V17.6094C22 18.9648 21.5977 20.293 20.8438 21.4219L20.6445 21.7227C20.5273 21.8984 20.332 22 20.125 22C19.918 22 19.7227 21.8945 19.6055 21.7227L19.4062 21.4219C18.6523 20.293 18.25 18.9648 18.25 17.6094V16.375C18.25 16.0312 18.5312 15.75 18.875 15.75Z" fill="#1C5C5F"/>
</svg>
