<svg width="24" height="24" viewBox="0 0 24 24" fill="none" xmlns="http://www.w3.org/2000/svg">
<path d="M17.5604 11.0607L10.9392 4.43914C10.7999 4.29988 10.6346 4.18942 10.4526 4.11407C10.2706 4.03872 10.0756 3.99996 9.87861 4H3.49974C3.10198 4 2.72052 4.15802 2.43926 4.43929C2.15801 4.72056 2 5.10204 2 5.49982V11.8784C1.99996 12.0753 2.03872 12.2704 2.11406 12.4524C2.18941 12.6344 2.29986 12.7997 2.43912 12.939L9.06026 19.5606C9.19953 19.6999 9.36488 19.8104 9.54686 19.8858C9.72884 19.9612 9.9239 20 10.1209 20C10.3179 20 10.5129 19.9612 10.6949 19.8858C10.8769 19.8104 11.0422 19.6999 11.1815 19.5606L17.5597 13.182C17.699 13.0427 17.8095 12.8774 17.8849 12.6954C17.9603 12.5134 17.9991 12.3183 17.9991 12.1213C17.9991 11.9243 17.9603 11.7293 17.8849 11.5473C17.8095 11.3653 17.6997 11.1999 17.5604 11.0607ZM5.49985 8.99987C5.20323 8.99987 4.91327 8.9119 4.66664 8.7471C4.42001 8.5823 4.22778 8.34806 4.11427 8.074C4.00076 7.79994 3.97106 7.49838 4.02893 7.20744C4.08679 6.91651 4.22963 6.64926 4.43937 6.43951C4.64911 6.22976 4.91634 6.08691 5.20726 6.02904C5.49818 5.97117 5.79973 6.00087 6.07377 6.11439C6.34781 6.22791 6.58204 6.42014 6.74683 6.66679C6.91162 6.91343 6.99958 7.20341 6.99958 7.50004C6.99958 7.89782 6.84157 8.27931 6.56032 8.56058C6.27906 8.84185 5.8976 8.99987 5.49985 8.99987ZM21.5599 13.182L15.1817 19.5606C15.0424 19.6999 14.8771 19.8104 14.6951 19.8858C14.5131 19.9612 14.3181 20 14.1211 20C13.9241 20 13.7291 19.9612 13.5471 19.8858C13.3651 19.8104 13.1997 19.6999 13.0605 19.5606L13.0495 19.5496L18.4868 14.1119C18.748 13.8508 18.9552 13.5407 19.0965 13.1994C19.2379 12.8582 19.3107 12.4924 19.3107 12.1231C19.3107 11.7537 19.2379 11.3879 19.0965 11.0467C18.9552 10.7054 18.748 10.3954 18.4868 10.1342L12.3557 4H13.8781C14.0752 3.99987 14.2704 4.03859 14.4525 4.11394C14.6346 4.18929 14.8001 4.2998 14.9394 4.43914L21.5606 11.0607C21.6999 11.1999 21.8104 11.3653 21.8858 11.5473C21.9612 11.7293 22 11.9243 22 12.1213C22 12.3183 21.9612 12.5134 21.8858 12.6954C21.8104 12.8774 21.6992 13.0427 21.5599 13.182Z" fill="#FFFFFF"/>
</svg>
