<svg className="your-svg-class" width="24" height="24" viewBox="0 0 24 24" fill="none" xmlns="http://www.w3.org/2000/svg">
<path d="M5.4 2C6.19565 2 6.95871 2.32924 7.52132 2.91529C8.08393 3.50134 8.4 4.2962 8.4 5.125C8.4 5.9538 8.08393 6.74866 7.52132 7.33471C6.95871 7.92076 6.19565 8.25 5.4 8.25C4.60435 8.25 3.84129 7.92076 3.27868 7.33471C2.71607 6.74866 2.4 5.9538 2.4 5.125C2.4 4.2962 2.71607 3.50134 3.27868 2.91529C3.84129 2.32924 4.60435 2 5.4 2ZM19.2 2C19.9956 2 20.7587 2.32924 21.3213 2.91529C21.8839 3.50134 22.2 4.2962 22.2 5.125C22.2 5.9538 21.8839 6.74866 21.3213 7.33471C20.7587 7.92076 19.9956 8.25 19.2 8.25C18.4044 8.25 17.6413 7.92076 17.0787 7.33471C16.5161 6.74866 16.2 5.9538 16.2 5.125C16.2 4.2962 16.5161 3.50134 17.0787 2.91529C17.6413 2.32924 18.4044 2 19.2 2ZM0 13.668C0 11.3672 1.7925 9.5 4.00125 9.5H5.6025C6.19875 9.5 6.765 9.63672 7.275 9.87891C7.22625 10.1602 7.20375 10.4531 7.20375 10.75C7.20375 12.2422 7.83375 13.582 8.8275 14.5H0.79875C0.36 14.5 0 14.125 0 13.668ZM15.1988 14.5H15.1725C16.17 13.582 16.7963 12.2422 16.7963 10.75C16.7963 10.4531 16.77 10.1641 16.725 9.87891C17.235 9.63281 17.8013 9.5 18.3975 9.5H19.9988C22.2075 9.5 24 11.3672 24 13.668C24 14.1289 23.64 14.5 23.2013 14.5H15.1988ZM8.4 10.75C8.4 9.75544 8.77929 8.80161 9.45442 8.09835C10.1295 7.39509 11.0452 7 12 7C12.9548 7 13.8705 7.39509 14.5456 8.09835C15.2207 8.80161 15.6 9.75544 15.6 10.75C15.6 11.7446 15.2207 12.6984 14.5456 13.4017C13.8705 14.1049 12.9548 14.5 12 14.5C11.0452 14.5 10.1295 14.1049 9.45442 13.4017C8.77929 12.6984 8.4 11.7446 8.4 10.75ZM4.8 20.957C4.8 18.082 7.03875 15.75 9.79875 15.75H14.2013C16.9613 15.75 19.2 18.082 19.2 20.957C19.2 21.5312 18.7537 22 18.1987 22H5.80125C5.25 22 4.8 21.5352 4.8 20.957Z" fill="#FFFFFF"/>
</svg>
