<svg width="24" height="24" viewBox="0 0 24 24" fill="none" xmlns="http://www.w3.org/2000/svg">
<path d="M11.963 5C14.0059 5 16.1859 5.77498 18.1468 7.43395C19.5958 8.65992 20.8498 10.2359 21.9097 12.1558C22.0197 12.3538 22.0297 12.5948 21.9367 12.8008C20.9488 15.0008 19.6418 16.6828 18.0158 17.8327C15.9399 19.2997 13.7489 19.9997 11.999 19.9997C10.026 19.9997 8.26503 19.4747 6.25907 17.9057C4.68211 16.6738 3.29514 15.0048 2.09516 12.9058C2.03656 12.8031 2.00401 12.6876 2.00035 12.5695C1.99669 12.4513 2.02203 12.334 2.07416 12.2278C2.80815 10.7349 3.92512 9.27791 5.42109 7.85094C7.43805 5.92798 9.833 5 11.963 5ZM11.999 8.40593C9.851 8.40593 8.10903 10.1979 8.10903 12.4088C8.10903 14.6188 9.851 16.4108 11.999 16.4108C14.1479 16.4108 15.8889 14.6188 15.8889 12.4088C15.8889 10.1989 14.1479 8.40593 12 8.40593H11.999ZM11.999 9.8189C13.3889 9.8189 14.5159 10.9789 14.5159 12.4088C14.5159 13.8388 13.3889 14.9988 11.999 14.9988C10.609 14.9988 9.48201 13.8388 9.48201 12.4088C9.48201 10.9789 10.609 9.8189 11.999 9.8189Z" fill="#5A7894"/>
</svg>
