<svg width="24" height="24" viewBox="0 0 24 24" fill="none" xmlns="http://www.w3.org/2000/svg">
<path fill-rule="evenodd" clip-rule="evenodd" d="M4.88598 4.18871C4.73546 4.06451 4.53638 3.9969 4.33067 4.00011C4.12497 4.00332 3.9287 4.07712 3.78322 4.20594C3.63774 4.33477 3.55441 4.50856 3.55078 4.69072C3.54715 4.87288 3.62351 5.04917 3.76377 5.18246L19.1149 18.7762C19.1876 18.8453 19.2752 18.9007 19.3726 18.9391C19.47 18.9776 19.5752 18.9982 19.6818 18.9999C19.7884 19.0016 19.8943 18.9842 19.9932 18.9488C20.092 18.9135 20.1818 18.8608 20.2572 18.7941C20.3326 18.7273 20.3921 18.6478 20.432 18.5602C20.472 18.4727 20.4916 18.3789 20.4897 18.2845C20.4878 18.1901 20.4645 18.097 20.4211 18.0107C20.3777 17.9245 20.3151 17.8468 20.2371 17.7825L18.3897 16.1465C19.9624 15.0918 21.1722 13.6699 21.8834 12.0403C22.0386 11.6827 22.0386 11.2869 21.8834 10.9293C21.1145 9.16062 19.7585 7.63969 17.9941 6.56694C16.2297 5.4942 14.1396 4.91998 11.9994 4.91996C10.2461 4.91739 8.51988 5.30213 6.97691 6.03934L4.88598 4.18871ZM9.62048 8.37934L10.7766 9.40309C11.276 9.17192 11.8458 9.08796 12.4029 9.16343C12.9599 9.2389 13.4753 9.46986 13.8738 9.82269C14.2724 10.1755 14.5334 10.6318 14.6188 11.1251C14.7042 11.6184 14.6095 12.1229 14.3486 12.5653L15.5037 13.589C16.058 12.8673 16.3106 11.9969 16.218 11.1279C16.1254 10.2589 15.6934 9.44575 14.9964 8.82855C14.2994 8.21136 13.3811 7.82879 12.3998 7.74679C11.4184 7.66479 10.4355 7.88849 9.62048 8.37934Z" fill="#5A7894"/>
<path d="M12.7925 15.1668L15.4636 17.5322C14.35 17.8727 13.1799 18.046 12.0017 18.045C7.49376 18.045 3.64434 15.5512 2.11664 12.0356C1.96112 11.6778 1.96112 11.2816 2.11664 10.9237C2.63378 9.7391 3.41716 8.6598 4.4193 7.75122L7.83995 10.7812C7.71068 11.382 7.74931 12.0016 7.95245 12.5862C8.1556 13.1707 8.5171 13.7023 9.00545 14.1348C9.49381 14.5672 10.0942 14.8873 10.7543 15.0672C11.4144 15.2471 12.1141 15.2813 12.7925 15.1668Z" fill="#5A7894"/>
</svg>
