<svg width="24" height="24" viewBox="0 0 24 24" fill="none" xmlns="http://www.w3.org/2000/svg">
<path d="M17.5091 22H19.0182C19.7818 22 20.4091 21.4091 20.5 20.6636L22 5.68182H17.4545V2H15.6636V5.68182H11.1455L11.4182 7.80909C12.9727 8.23636 14.4273 9.00909 15.3 9.86364C16.6091 11.1545 17.5091 12.4909 17.5091 14.6727V22ZM2 21.0909V20.1818H15.6636V21.0909C15.6636 21.5818 15.2545 22 14.7273 22H2.90909C2.40909 22 2 21.5818 2 21.0909ZM15.6636 14.7273C15.6636 7.45455 2 7.45455 2 14.7273H15.6636ZM2 16.5455H15.6364V18.3636H2V16.5455Z" fill="#DA6252"/>
</svg>
