<svg width="24" height="24" viewBox="0 0 24 24" fill="none" xmlns="http://www.w3.org/2000/svg">
<g clip-path="url(#clip0_545_68639)">
<path d="M20 8C20.5046 7.99984 20.9906 8.19041 21.3605 8.5335C21.7305 8.87659 21.9572 9.34685 21.995 9.85L22 10V19C22.0002 19.5046 21.8096 19.9906 21.4665 20.3605C21.1234 20.7305 20.6532 20.9572 20.15 20.995L20 21H16C15.4954 21.0002 15.0094 20.8096 14.6395 20.4665C14.2695 20.1234 14.0428 19.6532 14.005 19.15L14 19V10C13.9998 9.49542 14.1904 9.00943 14.5335 8.63945C14.8766 8.26947 15.3468 8.04284 15.85 8.005L16 8H20ZM17 4C17.5304 4 18.0391 4.21071 18.4142 4.58579C18.7893 4.96086 19 5.46957 19 6H15C14.2044 6 13.4413 6.31607 12.8787 6.87868C12.3161 7.44129 12 8.20435 12 9V20H4C3.46957 20 2.96086 19.7893 2.58579 19.4142C2.21071 19.0391 2 18.5304 2 18V6C2 5.46957 2.21071 4.96086 2.58579 4.58579C2.96086 4.21071 3.46957 4 4 4H17Z" fill="#25384D"/>
</g>
<defs>
<clipPath id="clip0_545_68639">
<rect width="24" height="24" fill="white"/>
</clipPath>
</defs>
</svg>
