<svg width="22" height="32" viewBox="0 0 32 32" fill="none" xmlns="http://www.w3.org/2000/svg">
<path d="M12.4357 2.66677C10.1448 2.65349 7.9145 5.07168 8.93268 8.0745H5.09026C4.44731 8.0745 3.83069 8.35447 3.37606 8.85282C2.92143 9.35118 2.66602 10.0271 2.66602 10.7319V13.3892C2.66602 13.7416 2.79372 14.0796 3.02104 14.3287C3.24835 14.5779 3.55666 14.7179 3.87814 14.7179H14.7872V10.7319H17.2115V14.7179H28.1206C28.442 14.7179 28.7503 14.5779 28.9777 14.3287C29.205 14.0796 29.3327 13.7416 29.3327 13.3892V10.7319C29.3327 10.0271 29.0773 9.35118 28.6226 8.85282C28.168 8.35447 27.5514 8.0745 26.9084 8.0745H23.066C24.4842 3.72972 19.1509 0.660465 16.6903 4.40734L15.9993 5.41714L15.3084 4.38077C14.5448 3.19824 13.4903 2.68006 12.4357 2.66677ZM12.363 5.41714C13.4418 5.41714 13.9872 6.85212 13.2236 7.68918C12.46 8.52625 11.1509 7.92835 11.1509 6.74582C11.1509 6.39343 11.2786 6.05548 11.5059 5.8063C11.7332 5.55713 12.0415 5.41714 12.363 5.41714ZM19.6357 5.41714C20.7145 5.41714 21.26 6.85212 20.4963 7.68918C19.7327 8.52625 18.4236 7.92835 18.4236 6.74582C18.4236 6.39343 18.5513 6.05548 18.7786 5.8063C19.0059 5.55713 19.3142 5.41714 19.6357 5.41714ZM3.87814 16.0466V26.676C3.87814 27.3808 4.13355 28.0567 4.58818 28.5551C5.04281 29.0534 5.65943 29.3334 6.30238 29.3334H25.6963C26.3393 29.3334 26.9559 29.0534 27.4105 28.5551C27.8652 28.0567 28.1206 27.3808 28.1206 26.676V16.0466H17.2115V26.676H14.7872V16.0466H3.87814Z" fill="#1C5C5F"/>
</svg>
