<svg width="24" height="24" viewBox="0 0 24 24" fill="none" xmlns="http://www.w3.org/2000/svg">
<path d="M21.2727 12.2268C21.2731 11.541 21.2121 10.8565 21.0904 10.1816H11.6709V14.0486H17.0541C16.9431 14.6609 16.709 15.2442 16.366 15.7634C16.0229 16.2826 15.578 16.7268 15.0582 17.0691V19.5752H18.2899C19.2744 18.6276 20.0486 17.4838 20.5625 16.2178C21.0763 14.9519 21.3183 13.5922 21.2727 12.2268Z" fill="#4285F4"/>
<path d="M11.6704 21.997C14.1053 22.0634 16.4736 21.197 18.2905 19.5753L15.0566 17.0658C14.048 17.7145 12.8683 18.0469 11.6693 18.02C10.4226 18.0043 9.2122 17.5982 8.20846 16.8589C7.20472 16.1196 6.45814 15.0843 6.07379 13.8987L2.73206 13.8987V16.4893C3.56479 18.1453 4.84165 19.5373 6.42003 20.5099C7.99842 21.4825 9.81621 21.9973 11.6704 21.997Z" fill="#34A853"/>
<path d="M6.07313 13.8984C5.65498 12.6665 5.65498 11.3311 6.07313 10.0992V7.50867H2.7321C2.0326 8.90214 1.66833 10.4397 1.66833 11.9988C1.66833 13.558 2.0326 15.0955 2.7321 16.489L6.07313 13.8984Z" fill="#FBBC05"/>
<path d="M11.6704 5.97806C13.0919 5.95433 14.4654 6.49156 15.4933 7.47331L18.3616 4.60613C16.5517 2.9063 14.1537 1.97274 11.6704 2.00112C9.81621 2.00076 7.99842 2.51563 6.42003 3.48822C4.84165 4.46081 3.56479 5.85284 2.73206 7.50885L6.07379 10.0994C6.4582 8.91364 7.20495 7.87821 8.20891 7.13889C9.21287 6.39957 10.4235 5.99358 11.6704 5.97806Z" fill="#EA4335"/>
</svg>
