<svg width="24" height="24" viewBox="0 0 24 24" fill="none" xmlns="http://www.w3.org/2000/svg">
<path fill-rule="evenodd" clip-rule="evenodd" d="M10.8355 3.39999C11.268 3.13802 11.764 2.99951 12.2697 2.99951C12.7754 2.99951 13.2714 3.13802 13.704 3.39999L14.7225 4.02299C16.1515 4.89649 17.779 5.09099 19.414 5.28699C19.9425 5.35049 20.4715 5.41349 20.995 5.49999C20.995 5.49999 21.0065 6.41699 20.9945 6.83299L20.89 10.4085C20.8 13.475 19.4365 16.3825 17.0975 18.4955C15.994 19.492 14.8525 20.3925 13.541 21.1405C13.1545 21.3591 12.7211 21.4818 12.2774 21.498C11.8336 21.5143 11.3924 21.4238 10.991 21.234C9.47645 20.514 8.13545 19.601 6.91095 18.4955C4.57195 16.3825 3.20845 13.475 3.11895 10.4085L3.01495 6.84449C3.00245 6.42199 3.01495 5.49999 3.01495 5.49999C3.43995 5.44999 3.87296 5.40849 4.30946 5.36699C6.23595 5.18399 8.22645 4.99499 9.85945 3.99699L10.836 3.39999H10.8355ZM11 11V7.49999H13V11H16.5V13H13V16.5H11V13H7.49995V11H11Z" fill="#972144"/>
</svg>
