<svg width="24" height="24" viewBox="0 0 24 24" fill="none" xmlns="http://www.w3.org/2000/svg">
<path d="M21.9965 12.466C21.9996 14.3547 21.4682 16.2057 20.4637 17.8049C19.4593 19.404 18.0228 20.6861 16.3204 21.5026C14.6181 22.3192 12.7194 22.6369 10.8441 22.4191C8.96882 22.2012 7.19348 21.4567 5.72345 20.2716C5.61807 20.1863 5.53182 20.0798 5.47028 19.9589C5.40875 19.838 5.37332 19.7056 5.36629 19.5701C5.35926 19.4347 5.38078 19.2993 5.42947 19.1727C5.47816 19.0461 5.55292 18.9312 5.64889 18.8354L6.10663 18.3861C6.27288 18.2175 6.49508 18.1156 6.73129 18.0996C6.9675 18.0836 7.20139 18.1547 7.38882 18.2994C8.50247 19.1827 9.8463 19.7274 11.2605 19.8686C12.6746 20.0099 14.0996 19.7418 15.3658 19.0962C16.632 18.4506 17.6862 17.4548 18.4031 16.2271C19.1199 14.9994 19.4691 13.5915 19.4092 12.171C19.3492 10.7505 18.8827 9.37704 18.0651 8.21412C17.2474 7.0512 16.1131 6.14772 14.797 5.61116C13.4809 5.07461 12.0384 4.92755 10.6412 5.18749C9.24397 5.44743 7.95079 6.10342 6.91547 7.07744L8.96142 9.12426C9.0516 9.2145 9.113 9.32946 9.13788 9.45462C9.16275 9.57977 9.14998 9.70948 9.10117 9.82737C9.05237 9.94526 8.96972 10.046 8.86368 10.1169C8.75764 10.1878 8.63296 10.2257 8.50542 10.2257H2.64499C2.47393 10.2257 2.30987 10.1577 2.18891 10.0367C2.06795 9.91572 2 9.7516 2 9.58046V3.71753C2.00003 3.58992 2.03787 3.4652 2.10875 3.35911C2.17962 3.25303 2.28035 3.17034 2.39819 3.12152C2.51602 3.07269 2.64569 3.05991 2.77078 3.0848C2.89588 3.10968 3.01079 3.17111 3.101 3.26133L5.09493 5.25611C6.50952 3.90402 8.28956 2.99683 10.2145 2.64695C12.1394 2.29708 14.1247 2.51988 15.9243 3.28776C17.7239 4.05564 19.2587 5.33485 20.3387 6.96691C21.4187 8.59897 21.9963 10.5121 22 12.4694L21.9965 12.466ZM14.7031 15.6437L15.0993 15.1346C15.1771 15.0341 15.2343 14.9192 15.2677 14.7965C15.3011 14.6738 15.31 14.5457 15.2939 14.4196C15.2778 14.2935 15.237 14.1718 15.1738 14.0614C15.1107 13.951 15.0264 13.8542 14.9259 13.7764L13.2848 12.4998V8.28992C13.2848 8.03322 13.1829 7.78702 13.0014 7.60551C12.82 7.42399 12.5739 7.32202 12.3173 7.32202H11.6723C11.4157 7.32202 11.1696 7.42399 10.9882 7.60551C10.8067 7.78702 10.7048 8.03322 10.7048 8.28992V13.7608L13.342 15.8129C13.4425 15.8907 13.5574 15.9479 13.68 15.9813C13.8026 16.0147 13.9307 16.0236 14.0567 16.0075C14.1828 15.9914 14.3045 15.9506 14.4148 15.8875C14.5251 15.8243 14.6219 15.74 14.6996 15.6394L14.7031 15.6437Z" fill="#25384D"/>
</svg>
