<svg width="12" height="12" viewBox="0 0 12 12" fill="none" xmlns="http://www.w3.org/2000/svg">
<path d="M6 0C5.21207 -1.17411e-08 4.43185 0.155195 3.7039 0.456723C2.97595 0.758251 2.31451 1.20021 1.75736 1.75736C1.20021 2.31451 0.758251 2.97595 0.456723 3.7039C0.155195 4.43185 0 5.21207 0 6C0 6.78793 0.155195 7.56815 0.456723 8.2961C0.758251 9.02405 1.20021 9.68549 1.75736 10.2426C2.31451 10.7998 2.97595 11.2417 3.7039 11.5433C4.43185 11.8448 5.21207 12 6 12C7.5913 12 9.11742 11.3679 10.2426 10.2426C11.3679 9.11742 12 7.5913 12 6C12 4.4087 11.3679 2.88258 10.2426 1.75736C9.11742 0.632141 7.5913 2.37122e-08 6 0ZM6.75 3.5C6.75 3.69878 6.67104 3.88942 6.53048 4.02998C6.38992 4.17054 6.19928 4.2495 6.0005 4.2495C5.80172 4.2495 5.61108 4.17054 5.47052 4.02998C5.32996 3.88942 5.251 3.69878 5.251 3.5C5.251 3.30135 5.32991 3.11084 5.47038 2.97038C5.61084 2.82991 5.80135 2.751 6 2.751C6.19865 2.751 6.38916 2.82991 6.52962 2.97038C6.67009 3.11084 6.749 3.30135 6.749 3.5H6.75ZM6 5C6.13261 5 6.25979 5.05268 6.35355 5.14645C6.44732 5.24021 6.5 5.36739 6.5 5.5V8.5C6.5 8.63261 6.44732 8.75979 6.35355 8.85355C6.25979 8.94732 6.13261 9 6 9C5.86739 9 5.74021 8.94732 5.64645 8.85355C5.55268 8.75979 5.5 8.63261 5.5 8.5V5.5C5.5 5.36739 5.55268 5.24021 5.64645 5.14645C5.74021 5.05268 5.86739 5 6 5Z" fill="#38857B"/>
</svg>
