<svg width="24" height="24" viewBox="0 0 24 24" fill="none" xmlns="http://www.w3.org/2000/svg">
<path d="M5.33333 0C3.49479 0 2 1.34531 2 3V21C2 22.6547 3.49479 24 5.33333 24H18.6667C20.5052 24 22 22.6547 22 21V7.5H15.3333C14.4115 7.5 13.6667 6.82969 13.6667 6V0H5.33333ZM15.3333 0V6H22L15.3333 0ZM5.33333 12C5.33333 11.6022 5.50893 11.2206 5.82149 10.9393C6.13405 10.658 6.55797 10.5 7 10.5C7.44203 10.5 7.86595 10.658 8.17851 10.9393C8.49107 11.2206 8.66667 11.6022 8.66667 12C8.66667 12.3978 8.49107 12.7794 8.17851 13.0607C7.86595 13.342 7.44203 13.5 7 13.5C6.55797 13.5 6.13405 13.342 5.82149 13.0607C5.50893 12.7794 5.33333 12.3978 5.33333 12ZM13.25 13.5C13.526 13.5 13.7812 13.6219 13.9375 13.8234L18.5208 19.8234C18.6979 20.0531 18.7135 20.3531 18.5729 20.5969C18.4323 20.8406 18.1458 21 17.8333 21H6.16667C5.86458 21 5.58854 20.8547 5.44271 20.6203C5.29687 20.3859 5.29688 20.0953 5.45312 19.8656L7.95312 16.1156C8.10417 15.8906 8.375 15.75 8.66667 15.75C8.95833 15.75 9.22917 15.8859 9.38021 16.1156L10.0469 17.1188L12.5625 13.8281C12.7188 13.6266 12.974 13.5047 13.25 13.5047V13.5Z" fill="#25384D"/>
</svg>
