<svg width="24" height="24" viewBox="0 0 24 24" fill="none" xmlns="http://www.w3.org/2000/svg">
<path d="M12 3C10.8181 3 9.64778 3.23279 8.55585 3.68508C7.46392 4.13738 6.47177 4.80031 5.63604 5.63604C4.80031 6.47177 4.13738 7.46392 3.68508 8.55585C3.23279 9.64778 3 10.8181 3 12C3 13.1819 3.23279 14.3522 3.68508 15.4442C4.13738 16.5361 4.80031 17.5282 5.63604 18.364C6.47177 19.1997 7.46392 19.8626 8.55585 20.3149C9.64778 20.7672 10.8181 21 12 21C14.3869 21 16.6761 20.0518 18.364 18.364C20.0518 16.6761 21 14.3869 21 12C21 9.61305 20.0518 7.32387 18.364 5.63604C16.6761 3.94821 14.3869 3 12 3ZM13.125 8.25C13.125 8.54817 13.0066 8.83413 12.7957 9.04496C12.5849 9.2558 12.2989 9.37425 12.0007 9.37425C11.7026 9.37425 11.4166 9.2558 11.2058 9.04496C10.9949 8.83413 10.8765 8.54817 10.8765 8.25C10.8765 7.95203 10.9949 7.66626 11.2056 7.45557C11.4163 7.24487 11.702 7.1265 12 7.1265C12.298 7.1265 12.5837 7.24487 12.7944 7.45557C13.0051 7.66626 13.1235 7.95203 13.1235 8.25H13.125ZM12 10.5C12.1989 10.5 12.3897 10.579 12.5303 10.7197C12.671 10.8603 12.75 11.0511 12.75 11.25V15.75C12.75 15.9489 12.671 16.1397 12.5303 16.2803C12.3897 16.421 12.1989 16.5 12 16.5C11.8011 16.5 11.6103 16.421 11.4697 16.2803C11.329 16.1397 11.25 15.9489 11.25 15.75V11.25C11.25 11.0511 11.329 10.8603 11.4697 10.7197C11.6103 10.579 11.8011 10.5 12 10.5Z" fill="#25384D"/>
</svg>
