<svg width="24" height="24" viewBox="0 0 24 24" fill="none" xmlns="http://www.w3.org/2000/svg">
<path d="M20.6667 3.33333H3.33333V2H20.6667V3.33333ZM3.34667 5.20267C3.37686 5.05159 3.45845 4.91564 3.57756 4.81792C3.69666 4.72021 3.84594 4.66676 4 4.66667H20C20.1541 4.66676 20.3033 4.72021 20.4224 4.81792C20.5416 4.91564 20.6231 5.05159 20.6533 5.20267L21.9867 11.8693C22.006 11.966 22.0036 12.0658 21.9798 12.1614C21.9559 12.2571 21.9111 12.3463 21.8486 12.4225C21.7861 12.4988 21.7075 12.5602 21.6184 12.6025C21.5293 12.6447 21.4319 12.6666 21.3333 12.6667H2.66667C2.56807 12.6666 2.47072 12.6447 2.38162 12.6025C2.29252 12.5602 2.21389 12.4988 2.15141 12.4225C2.08892 12.3463 2.04412 12.2571 2.02024 12.1614C1.99637 12.0658 1.99401 11.966 2.01333 11.8693L3.34667 5.20267ZM3.33333 14V20.6667H2V22H22V20.6667H20.6667V14H18V16.6667H6V14H3.33333Z" fill="#791520"/>
<path d="M6.40002 14.4H17.6V16H6.40002V14.4Z" fill="#791520"/>
</svg>
