<svg width="26" height="29" viewBox="0 0 26 29" fill="none" xmlns="http://www.w3.org/2000/svg">
<g filter="url(#filter0_d_513_71210)">
<path fill-rule="evenodd" clip-rule="evenodd" d="M4.5 9.568V14.432C4.5 16.726 4.5 17.872 5.222 18.585C5.877 19.232 6.896 19.291 8.818 19.297C8.717 18.622 8.696 17.817 8.69 16.869C8.69 16.7725 8.70902 16.677 8.74597 16.5879C8.78292 16.4988 8.83707 16.4178 8.90534 16.3496C8.9736 16.2815 9.05464 16.2274 9.1438 16.1906C9.23297 16.1538 9.32853 16.1349 9.425 16.135C9.52152 16.1338 9.61734 16.1516 9.70697 16.1875C9.7966 16.2233 9.87829 16.2765 9.94738 16.3439C10.0165 16.4113 10.0716 16.4917 10.1096 16.5804C10.1476 16.6691 10.1678 16.7645 10.169 16.861C10.175 17.925 10.202 18.679 10.309 19.251C10.412 19.803 10.576 20.121 10.816 20.359C11.089 20.629 11.472 20.804 12.196 20.899C12.94 20.999 13.926 21 15.341 21H16.326C17.741 21 18.727 20.998 19.472 20.9C20.195 20.804 20.578 20.628 20.85 20.359C21.123 20.089 21.301 19.711 21.398 18.997C21.498 18.263 21.5 17.288 21.5 15.892V8.108C21.5 6.711 21.498 5.738 21.398 5.002C21.301 4.289 21.123 3.91 20.851 3.642C20.578 3.372 20.195 3.196 19.471 3.1C18.727 3.002 17.741 3 16.326 3H15.341C13.926 3 12.94 3.002 12.195 3.1C11.472 3.196 11.089 3.372 10.816 3.641C10.576 3.878 10.412 4.197 10.309 4.749C10.202 5.321 10.175 6.075 10.169 7.139C10.1678 7.23552 10.1476 7.33087 10.1096 7.4196C10.0716 7.50832 10.0165 7.58869 9.94738 7.6561C9.87829 7.72352 9.7966 7.77667 9.70697 7.81251C9.61734 7.84835 9.52152 7.86619 9.425 7.865C9.32853 7.86513 9.23297 7.84624 9.1438 7.80941C9.05464 7.77259 8.9736 7.71854 8.90534 7.65037C8.83707 7.5822 8.78292 7.50124 8.74597 7.41212C8.70902 7.323 8.69 7.22747 8.69 7.131C8.696 6.183 8.717 5.378 8.818 4.703C6.896 4.709 5.878 4.768 5.222 5.415C4.5 6.128 4.5 7.275 4.5 9.568ZM6.934 12.516C6.86543 12.4487 6.81095 12.3684 6.77377 12.2798C6.73658 12.1912 6.71743 12.0961 6.71743 12C6.71743 11.9039 6.73658 11.8088 6.77377 11.7202C6.81095 11.6316 6.86543 11.5513 6.934 11.484L8.904 9.538C9.04352 9.40083 9.23134 9.32397 9.427 9.32397C9.62266 9.32397 9.81048 9.40083 9.95 9.538C10.0186 9.6053 10.073 9.6856 10.1102 9.7742C10.1474 9.86279 10.1666 9.95792 10.1666 10.054C10.1666 10.1501 10.1474 10.2452 10.1102 10.3338C10.073 10.4224 10.0186 10.5027 9.95 10.57L9.24 11.27H16.326C16.734 11.27 17.066 11.597 17.066 12C17.066 12.403 16.734 12.73 16.326 12.73H9.24L9.95 13.43C10.0186 13.4973 10.073 13.5776 10.1102 13.6662C10.1474 13.7548 10.1666 13.8499 10.1666 13.946C10.1666 14.0421 10.1474 14.1372 10.1102 14.2258C10.073 14.3144 10.0186 14.3947 9.95 14.462C9.81048 14.5992 9.62266 14.676 9.427 14.676C9.23134 14.676 9.04352 14.5992 8.904 14.462L6.934 12.516Z" fill="#38857B"/>
</g>
<defs>
<filter id="filter0_d_513_71210" x="-3" y="0" width="32" height="32" filterUnits="userSpaceOnUse" color-interpolation-filters="sRGB">
<feFlood flood-opacity="0" result="BackgroundImageFix"/>
<feColorMatrix in="SourceAlpha" type="matrix" values="0 0 0 0 0 0 0 0 0 0 0 0 0 0 0 0 0 0 127 0" result="hardAlpha"/>
<feOffset dy="4"/>
<feGaussianBlur stdDeviation="2"/>
<feComposite in2="hardAlpha" operator="out"/>
<feColorMatrix type="matrix" values="0 0 0 0 0 0 0 0 0 0 0 0 0 0 0 0 0 0 0.25 0"/>
<feBlend mode="normal" in2="BackgroundImageFix" result="effect1_dropShadow_513_71210"/>
<feBlend mode="normal" in="SourceGraphic" in2="effect1_dropShadow_513_71210" result="shape"/>
</filter>
</defs>
</svg>
