<svg width="21" height="21" viewBox="0 0 21 21" fill="none" xmlns="http://www.w3.org/2000/svg">
<path d="M13.7773 19.9183C13.6421 20.2481 13.3968 20.5208 13.0831 20.69C12.7693 20.8592 12.4067 20.9143 12.0568 20.846C11.7026 20.7788 11.3821 20.5923 11.1486 20.3176C10.9151 20.0428 10.7827 19.6964 10.7735 19.336V10.8749H2.31263C1.95986 10.8654 1.62109 10.7348 1.35319 10.5051C1.08529 10.2753 0.904553 9.9604 0.841306 9.61317C0.778059 9.26593 0.836154 8.90751 1.00584 8.59804C1.17553 8.28857 1.44648 8.04689 1.77323 7.91354L18.6949 0.989621C18.9758 0.874339 19.2846 0.844824 19.5823 0.904799C19.88 0.964775 20.1533 1.11155 20.3677 1.32663C20.5821 1.54171 20.728 1.81546 20.787 2.11336C20.8461 2.41127 20.8156 2.71999 20.6995 3.00061L13.7773 19.9183Z" fill="#5A7894"/>
</svg>

