<svg width="24" height="24" viewBox="0 0 24 24" fill="none" xmlns="http://www.w3.org/2000/svg">
<path d="M4.36732 20.9601V19.7655C4.36732 19.3074 4.07885 19.0088 3.58439 19.0088C3.33721 19.0088 3.06938 19.0885 2.88395 19.3473C2.73981 19.1283 2.53382 19.0088 2.2248 19.0088C2.01872 19.0088 1.81283 19.0685 1.64795 19.2875V19.0486H1.21533V20.9601H1.64795V19.9048C1.64795 19.5664 1.83338 19.407 2.12185 19.407C2.41014 19.407 2.55447 19.5862 2.55447 19.9048V20.9601H2.98708V19.9048C2.98708 19.5664 3.19297 19.407 3.4608 19.407C3.74927 19.407 3.89342 19.5862 3.89342 19.9048V20.9601H4.36732ZM10.7741 19.0486H10.0737V18.4712H9.6411V19.0486H9.24968V19.4269H9.64101V20.3031C9.64101 20.7411 9.82644 20.9999 10.3209 20.9999C10.5063 20.9999 10.7122 20.9402 10.8566 20.8606L10.7329 20.5021C10.6093 20.5818 10.4651 20.6017 10.3621 20.6017C10.1561 20.6017 10.0737 20.4823 10.0737 20.2831V19.4269H10.7741V19.0486ZM14.4411 19.0087C14.1939 19.0087 14.0291 19.1283 13.9261 19.2875V19.0486H13.4934V20.9601H13.9261V19.8849C13.9261 19.5664 14.0702 19.3871 14.338 19.3871C14.4204 19.3871 14.5235 19.4071 14.6059 19.427L14.7294 19.0288C14.6471 19.0088 14.5235 19.0088 14.4411 19.0088V19.0087ZM8.89946 19.2079C8.69338 19.0685 8.405 19.0088 8.09598 19.0088C7.60161 19.0088 7.27204 19.2477 7.27204 19.626C7.27204 19.9447 7.51922 20.1238 7.95184 20.1836L8.15782 20.2036C8.38445 20.2433 8.50804 20.3031 8.50804 20.4026C8.50804 20.542 8.34325 20.6416 8.05478 20.6416C7.7664 20.6416 7.53977 20.542 7.39554 20.4425L7.18955 20.761C7.41618 20.9203 7.72521 20.9999 8.03414 20.9999C8.61099 20.9999 8.94066 20.7412 8.94066 20.3827C8.94066 20.0442 8.67283 19.865 8.26077 19.8053L8.05478 19.7853C7.86935 19.7654 7.72521 19.7256 7.72521 19.6062C7.72521 19.4668 7.86935 19.3871 8.09598 19.3871C8.34325 19.3871 8.59044 19.4866 8.71403 19.5464L8.89946 19.2079ZM20.3947 19.0088C20.1475 19.0088 19.9827 19.1283 19.8796 19.2875V19.0486H19.447V20.9601H19.8796V19.8849C19.8796 19.5664 20.0239 19.3871 20.2916 19.3871C20.3741 19.3871 20.4771 19.4071 20.5595 19.427L20.6831 19.0288C20.6007 19.0088 20.4771 19.0088 20.3947 19.0088ZM14.8737 20.0044C14.8737 20.5818 15.2856 20.9999 15.9243 20.9999C16.2127 20.9999 16.4187 20.9402 16.6247 20.781L16.4187 20.4425C16.2539 20.5619 16.0891 20.6216 15.9037 20.6216C15.5535 20.6216 15.3063 20.3827 15.3063 20.0044C15.3063 19.646 15.5535 19.407 15.9037 19.3871C16.0891 19.3871 16.2539 19.4468 16.4187 19.5664L16.6247 19.2279C16.4187 19.0685 16.2127 19.0088 15.9243 19.0088C15.2856 19.0088 14.8737 19.427 14.8737 20.0044ZM18.8703 20.0044V19.0486H18.4376V19.2875C18.2934 19.1084 18.0874 19.0088 17.8196 19.0088C17.2634 19.0088 16.8308 19.427 16.8308 20.0044C16.8308 20.5818 17.2634 20.9999 17.8196 20.9999C18.108 20.9999 18.3141 20.9004 18.4376 20.7212V20.9601H18.8703V20.0044ZM17.2839 20.0044C17.2839 19.6659 17.5106 19.3871 17.8813 19.3871C18.2316 19.3871 18.4788 19.646 18.4788 20.0044C18.4788 20.3429 18.2316 20.6216 17.8813 20.6216C17.5106 20.6016 17.2839 20.3429 17.2839 20.0044ZM12.1132 19.0088C11.5363 19.0088 11.1243 19.407 11.1243 20.0044C11.1243 20.6017 11.5363 20.9999 12.1338 20.9999C12.4221 20.9999 12.7106 20.9203 12.9372 20.7412L12.7312 20.4425C12.5664 20.5619 12.3604 20.6416 12.1544 20.6416C11.8866 20.6416 11.6187 20.5221 11.5569 20.1835H13.0196V20.0243C13.0403 19.407 12.6695 19.0088 12.1132 19.0088ZM12.1132 19.3672C12.3809 19.3672 12.5665 19.5265 12.6076 19.8252H11.5775C11.6187 19.5664 11.8042 19.3672 12.1132 19.3672ZM22.8462 20.0044V18.292H22.4136V19.2875C22.2693 19.1084 22.0634 19.0088 21.7955 19.0088C21.2393 19.0088 20.8067 19.427 20.8067 20.0044C20.8067 20.5818 21.2393 20.9999 21.7955 20.9999C22.084 20.9999 22.29 20.9004 22.4136 20.7212V20.9601H22.8462V20.0044ZM21.26 20.0044C21.26 19.6659 21.4865 19.3871 21.8574 19.3871C22.2076 19.3871 22.4548 19.646 22.4548 20.0044C22.4548 20.3429 22.2076 20.6216 21.8574 20.6216C21.4865 20.6016 21.26 20.3429 21.26 20.0044ZM6.79813 20.0044V19.0486H6.36552V19.2875C6.22128 19.1084 6.0153 19.0088 5.74747 19.0088C5.19126 19.0088 4.75865 19.427 4.75865 20.0044C4.75865 20.5818 5.19126 20.9999 5.74747 20.9999C6.03594 20.9999 6.24193 20.9004 6.36552 20.7212V20.9601H6.79813V20.0044ZM5.19126 20.0044C5.19126 19.6659 5.41789 19.3871 5.78867 19.3871C6.13889 19.3871 6.38616 19.646 6.38616 20.0044C6.38616 20.3429 6.13889 20.6216 5.78867 20.6216C5.41789 20.6016 5.19126 20.3429 5.19126 20.0044Z" fill="black"/>
<path d="M8.75537 4.53345H15.2446V15.8034H8.75537V4.53345Z" fill="#FF5F00"/>
<path d="M9.16741 10.1682C9.16741 7.87836 10.2798 5.84734 11.9896 4.53315C10.7331 3.57741 9.14686 3 7.41639 3C3.31668 3 0 6.20571 0 10.1682C0 14.1305 3.31668 17.3363 7.4163 17.3363C9.14676 17.3363 10.733 16.7589 11.9896 15.8031C10.2798 14.5088 9.16741 12.4579 9.16741 10.1682Z" fill="#EB001B"/>
<path d="M24 10.1682C24 14.1305 20.6833 17.3363 16.5837 17.3363C14.8532 17.3363 13.267 16.7589 12.0104 15.8031C13.7408 14.489 14.8327 12.4579 14.8327 10.1682C14.8327 7.87836 13.7202 5.84734 12.0104 4.53315C13.2669 3.57741 14.8532 3 16.5837 3C20.6833 3 24 6.22567 24 10.1682Z" fill="#F79E1B"/>
</svg>
