<svg width="24" height="24" viewBox="0 0 24 24" fill="none" xmlns="http://www.w3.org/2000/svg">
<path d="M12.2823 22.4881C13.611 22.4966 14.9273 22.2324 16.1498 21.7116C17.3438 21.203 18.4279 20.4677 19.3423 19.5463C20.2585 18.6276 20.9928 17.5437 21.5063 16.3518C22.0225 15.1292 22.2886 13.8155 22.2886 12.4882C22.2886 11.161 22.0225 9.84718 21.5063 8.62458C20.4673 6.21892 18.5488 4.30152 16.1433 3.26479C14.9194 2.75223 13.6058 2.48828 12.2791 2.48828C10.9523 2.48828 9.63871 2.75223 8.41479 3.26479C7.22225 3.77251 6.14008 4.50801 5.22882 5.43012C4.31575 6.35019 3.58368 7.43383 3.0708 8.62458C2.55455 9.84718 2.28857 11.161 2.28857 12.4882C2.28857 13.8155 2.55455 15.1292 3.0708 16.3518C3.58439 17.5436 4.31863 18.6275 5.2348 19.5463C6.14923 20.4676 7.23338 21.2029 8.42731 21.7116C9.64569 22.2316 10.9577 22.4959 12.2823 22.4881ZM12.2823 21.0107C11.1631 21.018 10.0536 20.8017 9.01898 20.3746C7.98433 19.9474 7.04531 19.318 6.25684 18.5232C5.47978 17.742 4.86078 16.818 4.43384 15.802C3.55889 13.6792 3.55889 11.2962 4.43384 9.17341C4.86085 8.15742 5.47984 7.23349 6.25684 6.45226C7.03158 5.67191 7.95086 5.05011 8.96332 4.62164C11.0871 3.74628 13.4705 3.74628 15.5943 4.62164C16.6093 5.0489 17.531 5.67079 18.3073 6.45226C19.0854 7.23525 19.7084 8.15854 20.1433 9.17341C20.5836 10.2227 20.8109 11.3491 20.812 12.4871C20.813 13.6251 20.5877 14.7519 20.1493 15.802C19.7183 16.8174 19.0974 17.7411 18.3198 18.5232C17.5299 19.3195 16.5887 19.9498 15.5518 20.377C14.5149 20.8042 13.4036 21.0196 12.2823 21.0107Z" fill="#38857B"/>
<path d="M7.85287 16.0617H16.7109C16.8977 16.0723 17.0819 16.0139 17.2284 15.8976C17.2902 15.8449 17.3393 15.779 17.3722 15.7047C17.405 15.6303 17.4206 15.5495 17.4179 15.4683C17.4093 15.1776 17.2923 14.9007 17.0899 14.6919C16.8712 14.4434 16.6441 14.1971 16.4084 13.9529C16.1793 13.6943 16.0391 13.3691 16.0084 13.0249C15.9537 12.6246 15.9095 12.2354 15.8759 11.8571C15.8717 11.0078 15.6957 10.1681 15.3584 9.38862C15.209 9.06566 14.9954 8.77653 14.7307 8.5388C14.4661 8.30106 14.1558 8.11971 13.8189 8.00578C13.7215 7.65955 13.529 7.34757 13.2634 7.10524C12.9905 6.86511 12.6395 6.73267 12.2761 6.73267C11.9127 6.73267 11.5618 6.86511 11.2889 7.10524C11.0261 7.34892 10.8357 7.66059 10.7389 8.00578C10.4037 8.12167 10.0952 8.3038 9.83175 8.54136C9.56831 8.77892 9.35534 9.06704 9.20541 9.38862C8.86396 10.167 8.68578 11.0071 8.68191 11.8571C8.64858 12.236 8.60221 12.6233 8.54287 13.0188C8.50655 13.3617 8.37062 13.6865 8.15188 13.9529C7.92455 14.1971 7.69956 14.4434 7.47689 14.6919C7.27117 14.899 7.15165 15.1765 7.14242 15.4683C7.13963 15.5489 7.15456 15.6292 7.18618 15.7033C7.21781 15.7775 7.26533 15.8438 7.3254 15.8976C7.47437 16.0167 7.66267 16.0753 7.85287 16.0617ZM12.2819 18.2966C12.7 18.3099 13.107 18.1605 13.4174 17.8798C13.7123 17.6178 13.8934 17.2508 13.9219 16.8572H10.6414C10.6779 17.25 10.8602 17.6149 11.1524 17.8798C11.4597 18.1617 11.8652 18.3118 12.2819 18.2981V18.2966Z" fill="#38857B"/>
</svg>
