<svg width="24" height="24" viewBox="0 0 24 24" fill="none" xmlns="http://www.w3.org/2000/svg">
<path fill-rule="evenodd" clip-rule="evenodd" d="M10.275 2.00506C10.359 2 10.447 2 10.561 2H13.44C13.553 2 13.641 2 13.725 2.00506C14.2446 2.03705 14.7445 2.2177 15.1667 2.52603C15.5889 2.83436 15.916 3.2577 16.11 3.74684C16.141 3.82481 16.17 3.90886 16.205 4.01823L16.208 4.02835C16.292 4.25519 16.483 4.51342 16.751 4.72C16.781 4.74329 16.811 4.76456 16.841 4.78481C18.994 4.78785 20.118 4.82734 20.893 5.46633C21.053 5.59797 21.198 5.74481 21.327 5.90582C22 6.74329 22 7.9838 22 10.4648C22 11.0947 22 11.4086 21.85 11.6547C21.8205 11.7027 21.787 11.7481 21.75 11.7904C21.56 12.0071 21.263 12.0972 20.668 12.2785L16 13.6962V12.8861C16 12.3489 15.7893 11.8338 15.4142 11.454C15.0391 11.0741 14.5304 10.8608 14 10.8608H10C9.46957 10.8608 8.96086 11.0741 8.58579 11.454C8.21071 11.8338 8 12.3489 8 12.8861V13.6962L3.332 12.2785C2.737 12.0972 2.439 12.0071 2.25 11.7904C2.21299 11.748 2.17954 11.7027 2.15 11.6547C2 11.4086 2 11.0947 2 10.4648C2 7.9838 2 6.74329 2.673 5.90582C2.803 5.7438 2.948 5.59696 3.107 5.46633C3.882 4.82835 5.006 4.78785 7.16 4.78481C7.19 4.76456 7.22 4.74329 7.25 4.72C7.517 4.51342 7.709 4.25418 7.792 4.02835C7.83 3.91291 7.858 3.82582 7.89 3.74582C8.08415 3.25687 8.41132 2.83375 8.83351 2.52561C9.25569 2.21747 9.75554 2.03696 10.275 2.00506ZM14.819 4.60051C14.843 4.66329 14.869 4.72405 14.899 4.78481H9.101C9.13 4.72405 9.156 4.66329 9.181 4.60051V4.59747L9.186 4.58734L9.191 4.57519L9.196 4.56304L9.199 4.55291L9.201 4.54785L9.205 4.5357L9.209 4.52354L9.211 4.51747L9.214 4.50937L9.216 4.50228L9.218 4.4962C9.257 4.37873 9.269 4.34127 9.281 4.31291C9.36915 4.09055 9.51781 3.8981 9.7097 3.75792C9.90159 3.61773 10.1288 3.53558 10.365 3.52101C10.397 3.51899 10.437 3.51899 10.58 3.51899H13.418C13.561 3.51899 13.601 3.51899 13.633 3.52101C14.115 3.55139 14.537 3.85924 14.718 4.31291C14.728 4.34127 14.741 4.37671 14.78 4.4962L14.782 4.50228L14.784 4.50937L14.787 4.51747L14.789 4.52354L14.793 4.5357L14.797 4.54785L14.799 4.55291L14.803 4.56304L14.807 4.57519L14.812 4.58734L14.816 4.59747L14.818 4.60051H14.819ZM14 12.3797H10C9.86739 12.3797 9.74021 12.4331 9.64645 12.528C9.55268 12.623 9.5 12.7518 9.5 12.8861V15.0754C9.50002 15.1766 9.52994 15.2754 9.58591 15.3591C9.64187 15.4428 9.72131 15.5077 9.814 15.5453L10.514 15.8289C11.4679 16.2154 12.5321 16.2154 13.486 15.8289L14.186 15.5453C14.2787 15.5077 14.3581 15.4428 14.4141 15.3591C14.4701 15.2754 14.5 15.1766 14.5 15.0754V12.8861C14.5 12.7518 14.4473 12.623 14.3536 12.528C14.2598 12.4331 14.1326 12.3797 14 12.3797ZM8.01 15.2861L3.006 13.7651C3.036 16.9185 3.218 19.8228 4.318 20.8132C5.636 22 7.758 22 12 22C16.242 22 18.364 22 19.682 20.8132C20.782 19.8238 20.964 16.9185 20.994 13.7651L15.989 15.2851C15.9513 15.6521 15.8154 16.0017 15.5958 16.2962C15.3762 16.5907 15.0813 16.8188 14.743 16.9559L14.043 17.2395C12.7315 17.7708 11.2685 17.7708 9.957 17.2395L9.257 16.9559C8.9187 16.8188 8.62383 16.5907 8.40424 16.2962C8.18464 16.0017 8.04867 15.6521 8.011 15.2851L8.01 15.2861Z" fill="#D24252"/>
</svg>
