<svg width="24" height="24" viewBox="0 0 24 24" fill="none" xmlns="http://www.w3.org/2000/svg">
<path d="M22 12C22 17.5226 17.5226 22 12 22C6.4774 22 2 17.5226 2 12C2 6.4774 6.4774 2 12 2C17.5226 2 22 6.4774 22 12ZM17.3846 15.2053C17.1226 12.251 15.7433 9.57596 11.4774 9.57596V7.78173C11.4767 7.7041 11.4534 7.62836 11.4103 7.56375C11.3673 7.49914 11.3063 7.44846 11.235 7.41788C11.1636 7.3873 11.0849 7.37814 11.0084 7.39153C10.932 7.40491 10.8611 7.44027 10.8043 7.49327L6.73942 11.3269C6.70028 11.3638 6.66909 11.4083 6.64777 11.4576C6.62644 11.507 6.61545 11.5602 6.61545 11.6139C6.61545 11.6677 6.62644 11.7209 6.64777 11.7703C6.66909 11.8196 6.70028 11.8641 6.73942 11.901L10.7981 15.7361C10.8548 15.7891 10.9257 15.8244 11.0022 15.8378C11.0787 15.8512 11.1574 15.842 11.2287 15.8115C11.3001 15.7809 11.361 15.7302 11.4041 15.6656C11.4471 15.601 11.4704 15.5252 11.4712 15.4476V13.6548C14.2149 13.6548 15.5341 14.3024 16.6913 15.5144C16.9553 15.7861 17.4159 15.5779 17.3846 15.2053Z" fill="#25384D"/>
</svg>
