<svg width="24" height="24" viewBox="0 0 24 24" fill="none" xmlns="http://www.w3.org/2000/svg">
<path d="M7.20002 12V9.59998H16.8V12H7.20002ZM14.4 16.8V15.6H16.8V16.8H14.4ZM21.6 5.39998C21.6002 5.77237 21.4849 6.13565 21.27 6.43977C21.0551 6.74388 20.7511 6.97385 20.4 7.09798V19.8C20.4 19.9591 20.3368 20.1117 20.2243 20.2242C20.1118 20.3368 19.9592 20.4 19.8 20.4H12V15C12 14.8408 11.9368 14.6882 11.8243 14.5757C11.7118 14.4632 11.5592 14.4 11.4 14.4H6.60002C6.44089 14.4 6.28828 14.4632 6.17576 14.5757C6.06324 14.6882 6.00002 14.8408 6.00002 15V20.4H4.20002C4.04089 20.4 3.88828 20.3368 3.77576 20.2242C3.66324 20.1117 3.60002 19.9591 3.60002 19.8V7.09798C3.19902 6.95692 2.86089 6.67849 2.6455 6.312C2.43012 5.94552 2.35139 5.51464 2.42325 5.09567C2.49512 4.6767 2.71294 4.29669 3.03814 4.02293C3.36334 3.74917 3.77494 3.59934 4.20002 3.59998H19.8C20.2774 3.59998 20.7352 3.78962 21.0728 4.12719C21.4104 4.46475 21.6 4.92259 21.6 5.39998ZM3.60002 5.39998C3.60002 5.55911 3.66324 5.71172 3.77576 5.82424C3.88828 5.93676 4.04089 5.99998 4.20002 5.99998H19.8C19.9592 5.99998 20.1118 5.93676 20.2243 5.82424C20.3368 5.71172 20.4 5.55911 20.4 5.39998C20.4 5.24085 20.3368 5.08824 20.2243 4.97571C20.1118 4.86319 19.9592 4.79998 19.8 4.79998H4.20002C4.04089 4.79998 3.88828 4.86319 3.77576 4.97571C3.66324 5.08824 3.60002 5.24085 3.60002 5.39998ZM6.60002 8.39998C6.44089 8.39998 6.28828 8.46319 6.17576 8.57571C6.06324 8.68824 6.00002 8.84085 6.00002 8.99998V12.6C6.00002 12.7591 6.06324 12.9117 6.17576 13.0242C6.28828 13.1368 6.44089 13.2 6.60002 13.2H17.4C17.5592 13.2 17.7118 13.1368 17.8243 13.0242C17.9368 12.9117 18 12.7591 18 12.6V8.99998C18 8.84085 17.9368 8.68824 17.8243 8.57571C17.7118 8.46319 17.5592 8.39998 17.4 8.39998H6.60002ZM13.8 14.4C13.6409 14.4 13.4883 14.4632 13.3758 14.5757C13.2632 14.6882 13.2 14.8408 13.2 15V17.4C13.2 17.5591 13.2632 17.7117 13.3758 17.8242C13.4883 17.9368 13.6409 18 13.8 18H17.4C17.5592 18 17.7118 17.9368 17.8243 17.8242C17.9368 17.7117 18 17.5591 18 17.4V15C18 14.8408 17.9368 14.6882 17.8243 14.5757C17.7118 14.4632 17.5592 14.4 17.4 14.4H13.8ZM7.20002 20.4H10.8V15.6H7.20002V20.4Z" fill="#004E5F"/>
</svg>
