<svg width="24" height="24" viewBox="0 0 24 24" fill="none" xmlns="http://www.w3.org/2000/svg">
<path fill-rule="evenodd" clip-rule="evenodd" d="M22 12C22 6.477 17.523 2 12 2C6.477 2 2 6.477 2 12C2 17.523 6.477 22 12 22C17.523 22 22 17.523 22 12ZM8.47 11.53C8.32955 11.3894 8.25066 11.1988 8.25066 11C8.25066 10.8012 8.32955 10.6106 8.47 10.47L11.47 7.47C11.6106 7.32955 11.8012 7.25066 12 7.25066C12.1988 7.25066 12.3894 7.32955 12.53 7.47L15.53 10.47C15.6037 10.5387 15.6628 10.6215 15.7038 10.7135C15.7448 10.8055 15.7668 10.9048 15.7686 11.0055C15.7704 11.1062 15.7518 11.2062 15.7141 11.2996C15.6764 11.393 15.6203 11.4778 15.549 11.549C15.4778 11.6203 15.393 11.6764 15.2996 11.7141C15.2062 11.7518 15.1062 11.7704 15.0055 11.7686C14.9048 11.7668 14.8055 11.7448 14.7135 11.7038C14.6215 11.6628 14.5387 11.6037 14.47 11.53L12.75 9.81V16C12.75 16.1989 12.671 16.3897 12.5303 16.5303C12.3897 16.671 12.1989 16.75 12 16.75C11.8011 16.75 11.6103 16.671 11.4697 16.5303C11.329 16.3897 11.25 16.1989 11.25 16V9.81L9.53 11.53C9.38937 11.6705 9.19875 11.7493 9 11.7493C8.80125 11.7493 8.61063 11.6705 8.47 11.53Z" fill="#1C5C5F"/>
</svg>
