<svg width="24" height="24" viewBox="0 0 24 24" fill="none" xmlns="http://www.w3.org/2000/svg">
<path d="M20.25 12.243C21.0695 11.5947 21.7055 10.7436 22.095 9.77399C22.362 10.554 22.5 11.427 22.5 12.402C22.5 14.73 21.678 16.362 20.835 17.412C20.4491 17.8948 20.0001 18.3237 19.5 18.687V20.25C19.5 20.8467 19.2629 21.419 18.841 21.841C18.419 22.2629 17.8467 22.5 17.25 22.5H16.5C16.1022 22.5 15.7206 22.342 15.4393 22.0606C15.158 21.7793 15 21.3978 15 21H12C12 21.3978 11.842 21.7793 11.5607 22.0606C11.2794 22.342 10.8978 22.5 10.5 22.5H9.75C9.15326 22.5 8.58097 22.2629 8.15901 21.841C7.73705 21.419 7.5 20.8467 7.5 20.25V19.9305C6.54227 19.6248 5.6726 19.0921 4.965 18.378C4.0785 17.4765 3.5805 16.35 3.33 15.6435C3.30081 15.5462 3.24904 15.4572 3.17892 15.3837C3.10881 15.3101 3.02232 15.2542 2.9265 15.2205C2.51618 15.1043 2.15492 14.8576 1.89749 14.5176C1.64007 14.1776 1.50052 13.7629 1.5 13.3365V12.1455C1.5 11.2815 2.073 10.5225 2.9025 10.2855C3.0585 10.2405 3.2265 10.089 3.309 9.83849C3.5115 9.22799 3.9 8.32499 4.614 7.60199C5.22828 6.98697 5.93105 6.46723 6.699 6.05999V3.24449C6.69988 3.0165 6.7691 2.79402 6.89772 2.60578C7.02633 2.41754 7.20843 2.27218 7.4205 2.18849C7.62678 2.10284 7.85339 2.07851 8.07316 2.11841C8.29292 2.15832 8.4965 2.26078 8.6595 2.41349C9.039 2.77199 9.537 3.19949 10.0695 3.54899C10.617 3.90749 11.13 4.13399 11.5485 4.17599H11.556C10.7529 5.36717 10.4028 6.80651 10.569 8.23349C10.7505 9.77699 11.9445 10.704 12.9465 11.1195L16.5315 12.603C17.532 13.0185 19.032 13.206 20.2515 12.243H20.25ZM7.125 11.25C7.42337 11.25 7.70952 11.1315 7.9205 10.9205C8.13147 10.7095 8.25 10.4234 8.25 10.125C8.25 9.82662 8.13147 9.54047 7.9205 9.32949C7.70952 9.11851 7.42337 8.99999 7.125 8.99999C6.82663 8.99999 6.54048 9.11851 6.3295 9.32949C6.11853 9.54047 6 9.82662 6 10.125C6 10.4234 6.11853 10.7095 6.3295 10.9205C6.54048 11.1315 6.82663 11.25 7.125 11.25ZM12.345 5.87999C12.5993 5.2381 12.9978 4.66333 13.5098 4.20016C14.0219 3.73699 14.6336 3.39785 15.2977 3.20897C15.9617 3.0201 16.6604 2.98656 17.3395 3.11096C18.0186 3.23536 18.66 3.51435 19.214 3.92635C19.768 4.33835 20.2198 4.8723 20.5344 5.48688C20.849 6.10146 21.0179 6.78018 21.0282 7.47053C21.0384 8.16087 20.8897 8.84431 20.5935 9.46796C20.2973 10.0916 19.8615 10.6387 19.32 11.067C18.696 11.559 17.8395 11.5215 17.1045 11.217L13.5195 9.73199C12.7845 9.42899 12.1515 8.84849 12.0585 8.05949C12.0141 7.67744 12.0191 7.29125 12.0735 6.91049L12.345 5.87999ZM12.345 5.87999L12.141 6.53699C12.1922 6.31312 12.2604 6.09349 12.345 5.87999Z" fill="#1C5C5F"/>
</svg>
