<svg width="24" height="24" viewBox="0 0 24 24" fill="none" xmlns="http://www.w3.org/2000/svg">
<path d="M20.0342 12.998C20.0777 12.6668 20.0947 12.3327 20.0849 11.9989C20.0849 11.6485 20.0342 11.3488 20.0342 10.9999L22.1811 9.3499C22.2309 9.31429 22.2732 9.2691 22.3053 9.21696C22.3375 9.16483 22.359 9.1068 22.3685 9.04627C22.378 8.98574 22.3754 8.92392 22.3607 8.86442C22.3461 8.80492 22.3198 8.74894 22.2832 8.69975L20.2385 5.24305C20.1767 5.14192 20.0809 5.06616 19.9683 5.02939C19.8556 4.99263 19.7336 4.99727 19.624 5.04248L17.0678 6.04152C16.5361 5.63158 15.9513 5.29552 15.3295 5.04248L14.9731 2.39962C14.9416 2.28715 14.8749 2.18772 14.7829 2.11583C14.6909 2.04394 14.5783 2.00335 14.4616 2H10.3722C10.2554 2.00335 10.1429 2.04394 10.0508 2.11583C9.9588 2.18772 9.89215 2.28715 9.86059 2.39962L9.45503 5.04632C8.83891 5.31087 8.25559 5.64613 7.7168 6.04536L5.15361 5.04632C5.04467 4.99684 4.92115 4.99 4.8074 5.02712C4.69366 5.06425 4.59794 5.14266 4.53912 5.2469L2.49441 8.69745C2.44679 8.80409 2.43109 8.92227 2.44922 9.03766C2.46735 9.15305 2.51854 9.26071 2.59657 9.34759L4.7949 10.9976C4.7949 11.348 4.74421 11.6477 4.74421 11.9966C4.74421 12.3455 4.7949 12.6467 4.7949 12.9956L2.65264 14.6479C2.6028 14.6835 2.56056 14.7287 2.52838 14.7808C2.49619 14.833 2.47472 14.891 2.46521 14.9515C2.4557 15.0121 2.45834 15.0739 2.47298 15.1334C2.48762 15.1929 2.51397 15.2489 2.55048 15.2981L4.59519 18.7486C4.657 18.8497 4.75283 18.9255 4.86547 18.9623C4.97811 18.999 5.10016 18.9944 5.20968 18.9492L7.76595 17.9501C8.29766 18.3601 8.88238 18.6962 9.50419 18.9492L9.91282 21.5997C9.93577 21.7168 10.0001 21.8216 10.0941 21.895C10.1881 21.9684 10.3053 22.0055 10.4244 21.9993H14.5146C14.6313 21.996 14.7439 21.9554 14.8359 21.8835C14.9279 21.8116 14.9946 21.7122 15.0261 21.5997L15.4355 18.9492C16.0517 18.6847 16.635 18.3494 17.1738 17.9501L19.73 18.9492C19.839 18.9987 19.9625 19.0055 20.0762 18.9684C20.19 18.9313 20.2857 18.8528 20.3445 18.7486L22.3892 15.2981C22.437 15.1914 22.4527 15.0732 22.4346 14.9578C22.4164 14.8424 22.3652 14.7347 22.2871 14.6479L20.0342 12.998ZM12.4169 15.4986C11.7283 15.4831 11.0596 15.2645 10.4946 14.8704C9.92958 14.4763 9.49338 13.9242 9.24062 13.2831C8.98786 12.6421 8.92979 11.9407 9.07369 11.2668C9.21758 10.5929 9.55704 9.97645 10.0495 9.49471C10.542 9.01296 11.1657 8.68734 11.8423 8.55862C12.5189 8.4299 13.2185 8.50381 13.8533 8.7711C14.4882 9.03839 15.0301 9.48716 15.4111 10.0612C15.7922 10.6352 15.9955 11.309 15.9955 11.9981C15.993 12.4639 15.8982 12.9244 15.7165 13.3532C15.5347 13.782 15.2698 14.1704 14.9369 14.4959C14.604 14.8215 14.2098 15.0777 13.7773 15.2497C13.3447 15.4216 12.8823 15.5068 12.4169 15.4986Z" fill="#38857B"/>
</svg>
