<svg width="24" height="24" viewBox="0 0 24 24" fill="none" xmlns="http://www.w3.org/2000/svg">
<path d="M1.88635 9.29428L8.76117 2.51042C8.89714 2.37626 9.06397 2.28954 9.24182 2.26059C9.41967 2.23164 9.60105 2.26167 9.7644 2.3471C9.92774 2.43254 10.0662 2.56979 10.1632 2.74253C10.2603 2.91526 10.3119 3.11622 10.3118 3.32149V6.89491C16.5863 6.97694 21.5614 8.41349 21.5614 15.2076C21.4989 16.5582 21.1745 17.876 20.6116 19.0658C20.0487 20.2555 19.2614 21.2874 18.3066 22.0868C18.1915 22.1872 18.0519 22.244 17.9071 22.2494C17.7624 22.2549 17.6198 22.2086 17.4992 22.1172C17.3785 22.0257 17.2859 21.8935 17.234 21.739C17.1822 21.5845 17.1738 21.4154 17.21 21.2553C18.9814 14.7831 16.3701 13.0646 10.3118 12.9651V16.8892C10.3119 17.0945 10.2603 17.2954 10.1632 17.4682C10.0662 17.6409 9.92774 17.7782 9.7644 17.8636C9.60105 17.949 9.41967 17.9791 9.24182 17.9501C9.06397 17.9212 8.89714 17.8344 8.76117 17.7003L1.88635 10.9164C1.78438 10.8158 1.70257 10.6913 1.6465 10.5514C1.59043 10.4114 1.5614 10.2593 1.5614 10.1054C1.5614 9.95142 1.59043 9.7993 1.6465 9.65934C1.70257 9.51938 1.78438 9.39487 1.88635 9.29428Z" fill="#25384D"/>
</svg>
