<svg width="24" height="24" viewBox="0 0 24 24" fill="none" xmlns="http://www.w3.org/2000/svg">
<path fill-rule="evenodd" clip-rule="evenodd" d="M15.9303 14H19.6727C20.2899 14 20.8819 13.7366 21.3183 13.2678C21.7548 12.7989 22 12.163 22 11.5C22 10.837 21.7548 10.2011 21.3183 9.73223C20.8819 9.26339 20.2899 9 19.6727 9H6.7495C6.57666 8.9999 6.40726 8.94812 6.26027 8.85045C6.11329 8.75278 5.99451 8.61308 5.91725 8.447L5.50019 7.553C5.42294 7.38692 5.30416 7.24722 5.15717 7.14955C5.01018 7.05188 4.84078 7.0001 4.66794 7H2.93176C2.77763 6.99985 2.62588 7.04082 2.49012 7.11921C2.35437 7.19761 2.23886 7.31099 2.15396 7.44917C2.06906 7.58736 2.01743 7.74602 2.0037 7.91093C1.98997 8.07584 2.01458 8.24183 2.0753 8.394L4.07029 13.394C4.14212 13.574 4.26157 13.7274 4.41382 13.8351C4.56608 13.9428 4.74443 14.0002 4.92674 14H8.52292C8.67497 14.0001 8.82469 14.0402 8.95897 14.1168C9.09326 14.1934 9.20803 14.3042 9.29326 14.4395C9.37849 14.5747 9.43158 14.7303 9.44789 14.8927C9.4642 15.0551 9.44324 15.2193 9.38683 15.371L8.54806 17.63C8.49187 17.7815 8.47105 17.9456 8.48741 18.1077C8.50377 18.2699 8.55681 18.4253 8.64191 18.5604C8.72701 18.6955 8.84159 18.8062 8.97565 18.8828C9.1097 18.9594 9.25918 18.9997 9.41103 19H11.312C11.4516 19.0001 11.5894 18.9664 11.7153 18.9015C11.8411 18.8366 11.9518 18.7421 12.039 18.625L15.2042 14.375C15.2914 14.2581 15.4019 14.1637 15.5275 14.0987C15.6532 14.0338 15.7909 14.0001 15.9303 14ZM9.43244 8H13.8544L12.039 5.4C11.9523 5.2758 11.8399 5.175 11.7106 5.10557C11.5814 5.03614 11.4388 5 11.2943 5H9.54229C9.38367 5.00009 9.2277 5.04372 9.08918 5.12674C8.95066 5.20977 8.83419 5.32944 8.75082 5.47439C8.66745 5.61935 8.61994 5.78479 8.6128 5.95501C8.60567 6.12522 8.63914 6.29458 8.71004 6.447L9.43244 8Z" fill="#B77900"/>
</svg>
