<svg width="24" height="24" viewBox="0 0 24 24" fill="none" xmlns="http://www.w3.org/2000/svg">
<path d="M7 7C7 5.67392 7.52678 4.40215 8.46447 3.46447C9.40215 2.52678 10.6739 2 12 2C13.3261 2 14.5979 2.52678 15.5355 3.46447C16.4732 4.40215 17 5.67392 17 7V9C17 10.3261 16.4732 11.5979 15.5355 12.5355C14.5979 13.4732 13.3261 14 12 14C10.6739 14 9.40215 13.4732 8.46447 12.5355C7.52678 11.5979 7 10.3261 7 9V7ZM2 18.68C5.03851 16.9201 8.4886 15.9954 12 16C15.64 16 19.06 16.97 22 18.68V22H2V18.68Z" fill="#5A7894"/>
</svg>
