<svg width="24" height="24" viewBox="0 0 24 24" fill="none" xmlns="http://www.w3.org/2000/svg">
<path d="M12.4122 10.6537C12.3985 11.7681 13.3744 12.39 14.1095 12.7598C14.8647 13.1391 15.1184 13.3824 15.1154 13.7217C15.1098 14.2409 14.513 14.47 13.9545 14.4789C12.9802 14.4945 12.4136 14.2074 11.9633 13.9902L11.6122 15.6856C12.0641 15.9005 12.9008 16.088 13.7685 16.0962C15.8052 16.0962 17.1377 15.0584 17.1449 13.4494C17.1529 11.4073 14.4085 11.2942 14.4273 10.3815C14.4338 10.1047 14.6896 9.80936 15.2502 9.73426C15.5277 9.69633 16.2937 9.66729 17.1623 10.0801L17.5031 8.43983C17.0361 8.26429 16.4358 8.09619 15.6884 8.09619C13.7714 8.09619 12.4231 9.14811 12.4122 10.6537ZM20.7786 8.23748C20.4067 8.23748 20.0933 8.46141 19.9534 8.80505L17.044 15.9757H19.0793L19.4842 14.8203H21.9713L22.2062 15.9757H24L22.4347 8.23748H20.7786ZM21.0633 10.3279L21.6506 13.2337H20.0421L21.0633 10.3279ZM9.94462 8.23758L8.34037 15.9756H10.2798L11.8833 8.23738H9.94462M7.07559 8.23738L5.05697 13.5044L4.24041 9.02608C4.14459 8.52615 3.76622 8.23748 3.34603 8.23748H0.0462187L0 8.46219C0.677437 8.61392 1.44712 8.85866 1.91344 9.12053C2.19881 9.28049 2.28019 9.42033 2.37394 9.80045L3.92053 15.9757H5.97L9.11213 8.23748L7.07559 8.23738Z" fill="url(#paint0_linear_283_11759)"/>
<defs>
<linearGradient id="paint0_linear_283_11759" x1="1103.38" y1="32.1442" x2="1127.28" y2="-789.425" gradientUnits="userSpaceOnUse">
<stop stop-color="#222357"/>
<stop offset="1" stop-color="#254AA5"/>
</linearGradient>
</defs>
</svg>
