<svg width="24" height="24" viewBox="0 0 24 24" fill="none" xmlns="http://www.w3.org/2000/svg">
<path d="M0 4.5C0 3.125 1.08 2 2.4 2H20.4C20.7183 2 21.0235 2.1317 21.2485 2.36612C21.4736 2.60054 21.6 2.91848 21.6 3.25V4.5H2.4V5.75H22.8C23.1183 5.75 23.4235 5.8817 23.6485 6.11612C23.8736 6.35054 24 6.66848 24 7V19.5C24 20.163 23.7471 20.7989 23.2971 21.2678C22.847 21.7366 22.2365 22 21.6 22H2.4C1.76348 22 1.15303 21.7366 0.702944 21.2678C0.252856 20.7989 0 20.163 0 19.5V4.5ZM19.8 15.75C20.2774 15.75 20.7352 15.5525 21.0728 15.2008C21.4104 14.8492 21.6 14.3723 21.6 13.875C21.6 13.3777 21.4104 12.9008 21.0728 12.5492C20.7352 12.1975 20.2774 12 19.8 12C19.3226 12 18.8648 12.1975 18.5272 12.5492C18.1896 12.9008 18 13.3777 18 13.875C18 14.3723 18.1896 14.8492 18.5272 15.2008C18.8648 15.5525 19.3226 15.75 19.8 15.75Z" fill="#FFFFFF"/>
</svg>
