<svg width="364" height="364" viewBox="0 0 364 364" fill="none" xmlns="http://www.w3.org/2000/svg">
<path d="M245.82 67.0939C301.636 93.4617 357.3 187.938 317.663 236.931C285.011 277.292 206.299 320.267 150.472 293.888C94.6447 267.508 56.4895 239.218 81.0452 180.821C105.601 122.425 190.003 40.73 245.82 67.0939Z" fill="#25384D"/>
<path d="M226.752 199.054C226.752 199.054 242.793 230.631 261.782 246.467C261.782 246.467 249.094 221.285 245.412 210.853C241.73 200.421 226.752 199.054 226.752 199.054Z" fill="#469B85"/>
<path d="M217.278 141.359C242.332 153.428 279.328 138.177 279.328 138.177L334 243.605C274.002 278.711 261.487 252.755 250.894 226.764V225.821C243.062 199.418 216.895 142.996 216.895 142.996" fill="url(#paint0_linear_164_2215)"/>
<path d="M239.928 208.215C226.258 182.465 97.576 238.656 97.576 238.656L30 117.969C30 117.969 100.288 88.9883 159.84 88.9883C200.092 88.9883 217.549 142.098 217.549 142.098C217.549 142.098 250.203 214.747 258.924 243.723L239.928 208.215Z" fill="#8EDAC2"/>
<path d="M229.408 240.473C231.427 243.886 233.491 247.07 235.69 250.084C237.823 253.053 240.131 255.878 242.598 258.54C244.983 261.119 247.545 263.507 250.263 265.686C255.638 269.932 261.653 273.183 268.052 275.301C268.453 275.44 268.854 275.591 269.253 275.698L270.485 276.039L271.717 276.393C272.129 276.504 272.534 276.659 272.957 276.731C274.638 277.084 276.31 277.553 278.033 277.798C278.896 277.937 279.753 278.136 280.621 278.255C281.49 278.375 282.367 278.469 283.244 278.593L284.565 278.783L285.898 278.894L288.588 279.149L289.267 279.224L289.945 279.256C290.398 279.28 290.852 279.291 291.305 279.327C292.219 279.391 293.136 279.438 294.067 279.525C295.911 279.589 297.772 279.653 299.686 279.847C297.986 280.738 296.24 281.535 294.442 282.266C293.546 282.595 292.64 282.885 291.73 283.191C291.272 283.346 290.816 283.481 290.355 283.627L289.666 283.841L288.969 284.012L286.155 284.648C285.683 284.751 285.211 284.85 284.736 284.942L283.304 285.133C282.343 285.26 281.383 285.367 280.416 285.478C279.449 285.589 278.475 285.569 277.498 285.605C275.55 285.663 273.602 285.603 271.661 285.423C270.68 285.335 269.702 285.157 268.72 285.006L267.25 284.763C266.762 284.663 266.28 284.532 265.797 284.421C261.875 283.526 258.082 282.085 254.518 280.134C250.935 278.202 247.607 275.783 244.617 272.937C241.674 270.114 239.074 266.914 236.878 263.409C234.715 259.975 232.966 256.267 231.671 252.372C231.014 250.459 230.483 248.5 230.082 246.509C229.665 244.526 229.439 242.504 229.408 240.473Z" fill="#EBC55B"/>
<path d="M207.827 100.115C205.451 97.1366 202.936 94.2864 200.29 91.5753C197.77 88.9689 195.1 86.5308 192.295 84.2751C189.578 82.0934 186.713 80.1257 183.724 78.3876C180.786 76.698 177.714 75.2834 174.543 74.1597C171.373 73.0133 168.114 72.1658 164.803 71.6271C164.388 71.552 163.971 71.4642 163.552 71.4005L162.29 71.2542L161.02 71.0951C160.598 71.048 160.18 70.9602 159.746 70.9525C158.038 70.8609 156.319 70.6586 154.582 70.6789C153.713 70.6789 152.836 70.6153 151.959 70.6318C151.083 70.6484 150.199 70.6878 149.311 70.6993H147.978L146.645 70.7909L143.948 70.9576L143.266 70.9856L142.592 71.0607C142.139 71.104 141.689 71.1638 141.232 71.1995C140.322 71.2745 139.408 71.37 138.479 71.426C136.647 71.6487 134.796 71.874 132.859 71.9783C134.421 70.8329 136.036 69.7753 137.699 68.7826C138.54 68.3181 139.396 67.8917 140.254 67.4488C140.685 67.2223 141.119 67.0199 141.553 66.8061L142.205 66.4879L142.872 66.2105L145.569 65.1503C146.022 64.9759 146.476 64.8054 146.932 64.6412L148.322 64.2441C149.255 63.9705 150.195 63.716 151.131 63.45C152.066 63.184 153.038 63.0529 154 62.8785C155.933 62.5231 157.884 62.2872 159.843 62.1722C160.828 62.1086 161.818 62.1365 162.81 62.1289H164.308C164.807 62.1531 165.302 62.2078 165.807 62.2435C173.85 62.8416 181.611 65.6283 188.341 70.334C191.642 72.6679 194.655 75.4298 197.309 78.5557C199.921 81.6192 202.162 85.016 203.981 88.6673C204.885 90.4607 205.672 92.3176 206.337 94.2251C207.019 96.1304 207.518 98.1037 207.827 100.115Z" fill="#EBC55B"/>
<path d="M127.485 151.457C120.531 152.127 117.81 151.003 116.715 147.98C115.456 144.504 117.369 140.946 122.039 139.046C126.957 137.045 129.762 139.013 131.371 142.932L137.477 140.448C136.37 137.585 134.451 135.179 132.038 133.626C129.625 132.073 126.861 131.466 124.202 131.904L121.673 124.922L113.388 128.292L115.882 135.179C111.007 138.699 108.152 144.47 110.381 150.624C113.049 157.989 119.654 159.508 128.138 158.509C135.737 157.612 138.136 159.855 139.21 162.822C140.007 165.022 139.923 169.079 133.817 171.563C128.126 173.879 124.825 171.855 123.158 168.217L117.079 170.69C119.939 177.537 125.891 179.617 131.67 178.765L134.176 185.683L142.462 182.313L139.981 175.464C144.942 172.093 147.919 166.747 145.551 160.212C142.273 151.148 134.438 150.787 127.485 151.457Z" fill="white"/>
<defs>
<linearGradient id="paint0_linear_164_2215" x1="275.447" y1="138.177" x2="275.447" y2="260.643" gradientUnits="userSpaceOnUse">
<stop stop-color="#BAF2DB"/>
<stop offset="1" stop-color="#38857B"/>
</linearGradient>
</defs>
</svg>
